<svg width="32.000000" height="32.000000" viewBox="0 0 32 32" fill="none" xmlns="http://www.w3.org/2000/svg" xmlns:xlink="http://www.w3.org/1999/xlink">
	<desc>
			Created with Pixso.
	</desc>
	<defs/>
	<path id="shape" d="M21.33 28.66C18.02 28.66 15.33 25.98 15.33 22.66C15.33 19.35 18.02 16.66 21.33 16.66C24.64 16.66 27.33 19.35 27.33 22.66C27.33 25.98 24.64 28.66 21.33 28.66ZM22.53 23.86L21.33 22.51L21.33 20.26M12 14.66L5.33 14.66M12 28L8 28C6.52 28 5.33 26.8 5.33 25.33L5.33 9.33C5.33 7.86 6.52 6.66 8 6.66L24 6.66C25.47 6.66 26.66 7.86 26.66 9.33L26.66 12M20 4L20 9.33M12 4L12 9.33" stroke="#FFFFFF" stroke-opacity="1.000000" stroke-width="1.500000" stroke-linejoin="round" stroke-linecap="round"/>
</svg>
