<svg width="38.603088" height="38.603210" viewBox="0 0 38.6031 38.6032" fill="none" xmlns="http://www.w3.org/2000/svg" xmlns:xlink="http://www.w3.org/1999/xlink">
	<desc>
			Created with Pixso.
	</desc>
	<defs/>
	<path id="tel" d="M37.3 33.67C37.3 35.74 35.44 37.47 33.35 37.28C15.3 37.3 1.3 23.17 1.31 5.23C1.12 3.15 2.84 1.3 4.91 1.3L10.34 1.3C11.22 1.29 12.07 1.6 12.74 2.17C14.63 3.79 15.85 9.31 15.38 11.5C15.02 13.22 13.29 14.41 12.12 15.59C14.69 20.11 18.45 23.85 22.98 26.42C24.15 25.25 25.35 23.53 27.07 23.17C29.27 22.7 34.82 23.92 36.44 25.82C37.01 26.5 37.32 27.36 37.3 28.25L37.3 33.67ZM24.3 8.3C25.77 8.58 27.24 9.23 28.3 10.3C29.36 11.36 30.01 12.82 30.3 14.3M25.3 1.3C28.36 1.64 31.12 3.12 33.3 5.3C35.48 7.47 36.95 10.23 37.3 13.3" stroke="#191614" stroke-opacity="1.000000" stroke-width="2.600000" stroke-linejoin="round" stroke-linecap="round"/>
</svg>
