<svg width="155.000000" height="127.000000" viewBox="0 0 155 127" fill="none" xmlns="http://www.w3.org/2000/svg" xmlns:xlink="http://www.w3.org/1999/xlink">
	<desc>
			Created with Pixso.
	</desc>
	<defs/>
	<rect id="Logo-Vector" rx="0.000000" width="154.000000" height="126.000000" transform="translate(0.500000 0.500000)" fill="#FFFFFF" fill-opacity="0"/>
	<path id="Vector" d="M123.6 44.59C126.24 37.33 128.13 28.68 128.9 18.36C128.9 18.36 107.77 23.29 92.23 37.49C90.91 26.71 86.43 14.16 76.59 0C76.59 0 63.34 17.04 60.16 37.77C44.6 23.36 23.19 18.36 23.19 18.36C23.95 28.68 25.85 37.33 28.49 44.59C14.06 43.1 2.13 45.52 2.13 45.52C32.69 101.01 76.04 82.18 76.04 82.18C76.02 82.09 76 82.01 75.97 81.92C76.01 81.95 76.05 81.99 76.09 82.02C76.08 82.07 76.06 82.13 76.04 82.18C76.04 82.18 76.19 82.24 76.48 82.36C76.51 82.39 76.55 82.43 76.59 82.47C76.59 82.47 76.61 82.45 76.64 82.43C81.95 84.43 121.5 97.2 149.96 45.52C149.96 45.52 138.02 43.1 123.6 44.6L123.6 44.59ZM122 26.63C121.46 33.89 120.18 40.05 118.4 45.3C109.09 46.87 99.24 50.27 91.18 57.06C92.22 52.76 92.8 47.96 92.63 42.67C104.48 30.72 122 26.63 122 26.63L122 26.63ZM82.03 66.46C82.27 58.92 84.79 52.69 88.47 47.57C87.85 55.77 84.87 62.14 82.03 66.46ZM116.58 49.96C107.83 69.72 91.43 73.97 85.2 74.87C90.72 58.2 104.29 51.99 116.58 49.96ZM88.47 41.24C81.24 49.15 75.97 59.49 76.04 72.8C76.04 72.8 76.04 72.8 76.04 72.8C76.11 59.57 70.9 49.28 63.74 41.39C65.52 24.79 76.44 10.77 76.44 10.77C84.53 22.42 87.83 32.63 88.47 41.25L88.47 41.24ZM63.52 47.44C67.21 52.55 69.76 58.76 70.04 66.28C65.62 60.22 63.77 53.75 63.52 47.44ZM30.08 26.63C30.08 26.63 47.74 30.75 59.59 42.81C59.29 47.39 59.54 52.09 60.58 56.78C52.57 50.17 42.86 46.84 33.67 45.29C31.89 40.04 30.61 33.88 30.08 26.63ZM66.87 74.87C60.64 73.96 44.25 69.71 35.49 49.96C47.78 51.98 61.36 58.2 66.87 74.87ZM11.84 50.16C11.84 50.16 20.12 48.48 30.4 49.33C38.6 67.75 51.84 75.93 61.79 79.56C51.26 81.5 28.91 81.16 11.84 50.16L11.84 50.16ZM90.29 79.56C100.25 75.92 113.48 67.74 121.69 49.33C131.96 48.48 140.24 50.16 140.24 50.16C123.17 81.16 100.82 81.5 90.3 79.56L90.29 79.56Z" fill="#C7A78A" fill-opacity="1.000000" fill-rule="nonzero"/>
	<path id="Vector" d="M0 96.24L4.35 96.24L4.35 108.13L11.97 108.13L11.97 111.95L0 111.95L0 96.24Z" fill="#FFFFFF" fill-opacity="1.000000" fill-rule="nonzero"/>
	<path id="Vector" d="M12.39 104.13L12.39 104.09C12.39 99.57 16.03 95.92 20.88 95.92C25.74 95.92 29.33 99.53 29.33 104.04L29.33 104.09C29.33 108.6 25.7 112.26 20.84 112.26C15.99 112.26 12.39 108.64 12.39 104.13ZM24.88 104.13L24.88 104.09C24.88 101.82 23.24 99.85 20.84 99.85C18.43 99.85 16.86 101.78 16.86 104.04L16.86 104.09C16.86 106.35 18.5 108.33 20.88 108.33C23.26 108.33 24.88 106.4 24.88 104.13Z" fill="#FFFFFF" fill-opacity="1.000000" fill-rule="nonzero"/>
	<path id="Vector" d="M34.77 100.05L30.05 100.05L30.05 96.24L43.84 96.24L43.84 100.05L39.12 100.05L39.12 111.95L34.77 111.95L34.77 100.05Z" fill="#FFFFFF" fill-opacity="1.000000" fill-rule="nonzero"/>
	<path id="Vector" d="M45.55 105.06L45.55 96.24L49.98 96.24L49.98 104.97C49.98 107.23 51.13 108.31 52.88 108.31C54.63 108.31 55.77 107.28 55.77 105.08L55.77 96.24L60.2 96.24L60.2 104.95C60.2 110.02 57.3 112.24 52.83 112.24C48.36 112.24 45.55 109.98 45.55 105.06Z" fill="#FFFFFF" fill-opacity="1.000000" fill-rule="nonzero"/>
	<path id="Vector" d="M61.59 109.61L64.01 106.72C65.56 107.95 67.29 108.6 69.11 108.6C70.28 108.6 70.91 108.2 70.91 107.52L70.91 107.48C70.91 106.83 70.39 106.47 68.25 105.97C64.91 105.21 62.32 104.27 62.32 101.03L62.32 100.99C62.32 98.07 64.63 95.96 68.41 95.96C71.08 95.96 73.17 96.68 74.88 98.05L72.7 101.12C71.26 100.11 69.69 99.57 68.3 99.57C67.24 99.57 66.72 100.02 66.72 100.59L66.72 100.63C66.72 101.35 67.26 101.66 69.44 102.16C73.06 102.94 75.3 104.11 75.3 107.05L75.3 107.1C75.3 110.31 72.76 112.21 68.95 112.21C66.16 112.21 63.51 111.34 61.58 109.61L61.59 109.61Z" fill="#FFFFFF" fill-opacity="1.000000" fill-rule="nonzero"/>
	<path id="Vector" d="M83.11 104.13L83.11 104.09C83.11 99.51 86.7 95.92 91.57 95.92C94.33 95.92 96.29 96.77 97.95 98.21L95.39 101.28C94.27 100.34 93.15 99.8 91.6 99.8C89.33 99.8 87.57 101.71 87.57 104.11L87.57 104.16C87.57 106.7 89.35 108.51 91.84 108.51C92.9 108.51 93.7 108.29 94.36 107.86L94.36 105.95L91.26 105.95L91.26 102.77L98.49 102.77L98.49 109.84C96.83 111.2 94.51 112.26 91.66 112.26C86.76 112.26 83.1 108.89 83.1 104.13L83.11 104.13Z" fill="#FFFFFF" fill-opacity="1.000000" fill-rule="nonzero"/>
	<path id="Vector" d="M100.92 96.24L105.28 96.24L105.28 108.13L112.89 108.13L112.89 111.95L100.92 111.95L100.92 96.24Z" fill="#FFFFFF" fill-opacity="1.000000" fill-rule="nonzero"/>
	<path id="Vector" d="M113.32 104.13L113.32 104.09C113.32 99.57 116.96 95.92 121.82 95.92C126.67 95.92 130.27 99.53 130.27 104.04L130.27 104.09C130.27 108.6 126.62 112.26 121.78 112.26C116.93 112.26 113.33 108.64 113.33 104.13L113.32 104.13ZM125.81 104.13L125.81 104.09C125.81 101.82 124.17 99.85 121.76 99.85C119.36 99.85 117.79 101.78 117.79 104.04L117.79 104.09C117.79 106.35 119.43 108.33 121.81 108.33C124.19 108.33 125.81 106.4 125.81 104.13Z" fill="#FFFFFF" fill-opacity="1.000000" fill-rule="nonzero"/>
	<path id="Vector" d="M130.57 96.24L135.18 96.24L137.92 105.33L140.95 96.19L144.7 96.19L147.74 105.33L150.48 96.24L155 96.24L149.74 112.06L145.94 112.06L142.77 103.02L139.62 112.06L135.83 112.06L130.57 96.24Z" fill="#FFFFFF" fill-opacity="1.000000" fill-rule="nonzero"/>
	<path id="Vector" d="M4.59 121.13L1.35 121.13L1.35 123.03L4.24 123.03L4.24 123.58L1.35 123.58L1.35 125.9L0.75 125.9L0.75 120.57L4.59 120.57L4.59 121.13Z" fill="#FFFFFF" fill-opacity="1.000000" fill-rule="nonzero"/>
	<path id="Vector" d="M9.15 120.57L9.15 125.9L8.55 125.9L8.55 120.57L9.15 120.57Z" fill="#FFFFFF" fill-opacity="1.000000" fill-rule="nonzero"/>
	<path id="Vector" d="M17.38 120.57L17.97 120.57L17.97 125.9L17.49 125.9L14.04 121.53L14.04 125.9L13.46 125.9L13.46 120.57L14.02 120.57L17.38 124.85L17.38 120.57Z" fill="#FFFFFF" fill-opacity="1.000000" fill-rule="nonzero"/>
	<path id="Vector" d="M26.7 124.29C26.57 124.62 26.37 124.9 26.12 125.14C25.87 125.38 25.57 125.56 25.22 125.7C24.87 125.84 24.49 125.9 24.07 125.9L22.22 125.9L22.22 120.57L24.07 120.57C24.49 120.57 24.87 120.64 25.22 120.78C25.57 120.91 25.87 121.1 26.12 121.34C26.37 121.58 26.56 121.86 26.7 122.19C26.84 122.51 26.91 122.86 26.91 123.24C26.91 123.61 26.84 123.96 26.7 124.29L26.7 124.29ZM26.13 122.42C26.03 122.16 25.88 121.94 25.69 121.74C25.49 121.55 25.26 121.4 24.99 121.29C24.71 121.19 24.41 121.13 24.07 121.13L22.82 121.13L22.82 125.35L24.07 125.35C24.41 125.35 24.71 125.3 24.99 125.19C25.26 125.08 25.49 124.93 25.69 124.74C25.87 124.55 26.02 124.33 26.13 124.08C26.23 123.82 26.28 123.55 26.28 123.25C26.28 122.95 26.23 122.67 26.13 122.42Z" fill="#FFFFFF" fill-opacity="1.000000" fill-rule="nonzero"/>
	<path id="Vector" d="M38.23 125.9L37.63 125.9L37.63 123.79L35.41 120.57L36.15 120.57L37.94 123.24L39.76 120.57L40.45 120.57L38.24 123.79L38.24 125.9L38.23 125.9Z" fill="#FFFFFF" fill-opacity="1.000000" fill-rule="nonzero"/>
	<path id="Vector" d="M48.71 124.29C48.58 124.62 48.39 124.91 48.15 125.17C47.92 125.42 47.63 125.62 47.29 125.77C46.95 125.93 46.59 126 46.18 126C45.77 126 45.4 125.93 45.07 125.78C44.73 125.63 44.45 125.43 44.21 125.18C43.97 124.93 43.79 124.64 43.66 124.31C43.53 123.98 43.47 123.62 43.47 123.25C43.47 122.88 43.53 122.53 43.66 122.2C43.8 121.87 43.98 121.57 44.22 121.32C44.46 121.06 44.75 120.86 45.09 120.71C45.42 120.56 45.79 120.48 46.2 120.48C46.61 120.48 46.98 120.56 47.31 120.7C47.64 120.85 47.93 121.05 48.17 121.3C48.4 121.55 48.59 121.84 48.72 122.17C48.85 122.5 48.91 122.86 48.91 123.23C48.91 123.6 48.84 123.95 48.71 124.29ZM48.13 122.38C48.02 122.12 47.88 121.88 47.69 121.69C47.5 121.49 47.28 121.33 47.02 121.21C46.77 121.1 46.48 121.04 46.18 121.04C45.88 121.04 45.6 121.1 45.34 121.21C45.09 121.32 44.86 121.48 44.68 121.68C44.5 121.88 44.35 122.11 44.25 122.38C44.15 122.65 44.1 122.93 44.1 123.24C44.1 123.54 44.15 123.83 44.25 124.1C44.35 124.37 44.5 124.6 44.69 124.8C44.87 125 45.1 125.16 45.35 125.27C45.61 125.39 45.89 125.44 46.19 125.44C46.49 125.44 46.78 125.39 47.03 125.27C47.29 125.16 47.51 125 47.69 124.8C47.88 124.6 48.02 124.37 48.13 124.1C48.23 123.84 48.28 123.55 48.28 123.25C48.28 122.94 48.23 122.66 48.13 122.38Z" fill="#FFFFFF" fill-opacity="1.000000" fill-rule="nonzero"/>
	<path id="Vector" d="M57.29 123.63C57.29 124.02 57.23 124.36 57.13 124.66C57.02 124.95 56.87 125.19 56.67 125.39C56.48 125.59 56.24 125.74 55.97 125.84C55.7 125.93 55.4 125.98 55.06 125.98C54.73 125.98 54.43 125.93 54.16 125.84C53.89 125.74 53.65 125.59 53.46 125.39C53.27 125.2 53.11 124.96 53.01 124.67C52.9 124.38 52.85 124.04 52.85 123.67L52.85 120.57L53.45 120.57L53.45 123.63C53.45 124.21 53.59 124.65 53.88 124.96C54.17 125.27 54.57 125.43 55.08 125.43C55.59 125.43 55.97 125.28 56.26 124.98C56.55 124.69 56.69 124.25 56.69 123.67L56.69 120.57L57.29 120.57L57.29 123.62L57.29 123.63Z" fill="#FFFFFF" fill-opacity="1.000000" fill-rule="nonzero"/>
	<path id="Vector" d="M65.13 125.9L63.59 123.83L62.06 123.83L62.06 125.9L61.46 125.9L61.46 120.57L63.76 120.57C64.05 120.57 64.32 120.61 64.55 120.69C64.79 120.76 64.99 120.87 65.16 121.01C65.33 121.15 65.46 121.32 65.55 121.52C65.64 121.71 65.68 121.93 65.68 122.17C65.68 122.39 65.65 122.59 65.58 122.76C65.5 122.94 65.41 123.09 65.27 123.22C65.14 123.36 64.99 123.46 64.81 123.55C64.64 123.63 64.45 123.7 64.24 123.73L65.87 125.9L65.13 125.9ZM64.72 121.41C64.48 121.22 64.14 121.13 63.71 121.13L62.05 121.13L62.05 123.3L63.7 123.3C63.89 123.3 64.08 123.28 64.25 123.22C64.42 123.17 64.56 123.1 64.68 123.01C64.8 122.91 64.9 122.8 64.97 122.66C65.04 122.53 65.07 122.37 65.07 122.2C65.07 121.86 64.95 121.6 64.71 121.41L64.72 121.41Z" fill="#FFFFFF" fill-opacity="1.000000" fill-rule="nonzero"/>
	<path id="Vector" d="M75.4 120.57L75.4 125.9L74.8 125.9L74.8 120.57L75.4 120.57Z" fill="#FFFFFF" fill-opacity="1.000000" fill-rule="nonzero"/>
	<path id="Vector" d="M83.63 120.57L84.22 120.57L84.22 125.9L83.74 125.9L80.3 121.53L80.3 125.9L79.71 125.9L79.71 120.57L80.28 120.57L83.64 124.85L83.64 120.57L83.63 120.57Z" fill="#FFFFFF" fill-opacity="1.000000" fill-rule="nonzero"/>
	<path id="Vector" d="M92.4 120.57L92.98 120.57L92.98 125.9L92.51 125.9L89.06 121.53L89.06 125.9L88.48 125.9L88.48 120.57L89.04 120.57L92.4 124.85L92.4 120.57L92.4 120.57Z" fill="#FFFFFF" fill-opacity="1.000000" fill-rule="nonzero"/>
	<path id="Vector" d="M101.1 121.12L97.84 121.12L97.84 122.94L100.75 122.94L100.75 123.49L97.84 123.49L97.84 125.36L101.13 125.36L101.13 125.91L97.24 125.91L97.24 120.58L101.1 120.58L101.1 121.13L101.1 121.12Z" fill="#FFFFFF" fill-opacity="1.000000" fill-rule="nonzero"/>
	<path id="Vector" d="M108.76 125.9L107.22 123.83L105.69 123.83L105.69 125.9L105.09 125.9L105.09 120.57L107.39 120.57C107.68 120.57 107.95 120.61 108.18 120.69C108.42 120.76 108.62 120.87 108.79 121.01C108.96 121.15 109.09 121.32 109.18 121.52C109.27 121.71 109.31 121.93 109.31 122.17C109.31 122.39 109.28 122.59 109.21 122.76C109.13 122.94 109.04 123.09 108.91 123.22C108.77 123.36 108.62 123.46 108.44 123.55C108.27 123.63 108.08 123.7 107.87 123.73L109.5 125.9L108.76 125.9ZM108.35 121.41C108.11 121.22 107.77 121.13 107.34 121.13L105.68 121.13L105.68 123.3L107.33 123.3C107.52 123.3 107.71 123.28 107.88 123.22C108.05 123.17 108.19 123.1 108.31 123.01C108.43 122.91 108.53 122.8 108.6 122.66C108.67 122.53 108.7 122.37 108.7 122.2C108.7 121.86 108.58 121.6 108.34 121.41L108.35 121.41Z" fill="#FFFFFF" fill-opacity="1.000000" fill-rule="nonzero"/>
	<path id="Vector" d="M118.38 120.57L118.98 120.57L118.98 125.35L121.99 125.35L121.99 125.9L118.38 125.9L118.38 120.57L118.38 120.57Z" fill="#FFFFFF" fill-opacity="1.000000" fill-rule="nonzero"/>
	<path id="Vector" d="M126.5 120.57L126.5 125.9L125.9 125.9L125.9 120.57L126.5 120.57Z" fill="#FFFFFF" fill-opacity="1.000000" fill-rule="nonzero"/>
	<path id="Vector" d="M134.5 125.76C134.14 125.92 133.73 126 133.28 126C132.86 126 132.48 125.92 132.15 125.78C131.82 125.64 131.53 125.44 131.3 125.19C131.06 124.95 130.88 124.66 130.76 124.32C130.63 123.99 130.57 123.63 130.57 123.25C130.57 122.87 130.63 122.53 130.77 122.2C130.9 121.86 131.08 121.57 131.31 121.31C131.54 121.06 131.83 120.86 132.15 120.7C132.48 120.56 132.85 120.48 133.25 120.48C133.47 120.48 133.67 120.49 133.86 120.52C134.05 120.55 134.22 120.6 134.38 120.66C134.54 120.72 134.69 120.79 134.83 120.89C134.97 120.98 135.11 121.07 135.24 121.19L134.85 121.64C134.75 121.55 134.64 121.46 134.53 121.39C134.42 121.32 134.3 121.25 134.17 121.2C134.04 121.14 133.9 121.1 133.74 121.07C133.59 121.04 133.41 121.03 133.23 121.03C132.93 121.03 132.66 121.08 132.41 121.2C132.16 121.32 131.95 121.48 131.77 121.67C131.59 121.87 131.45 122.11 131.35 122.37C131.24 122.64 131.19 122.92 131.19 123.22C131.19 123.54 131.24 123.84 131.34 124.12C131.44 124.39 131.58 124.62 131.77 124.82C131.95 125.02 132.17 125.17 132.43 125.29C132.69 125.4 132.98 125.45 133.31 125.45C133.61 125.45 133.9 125.4 134.17 125.29C134.44 125.19 134.66 125.06 134.85 124.91L134.85 123.58L133.22 123.58L133.22 123.05L135.42 123.05L135.42 125.17C135.17 125.39 134.87 125.58 134.5 125.74L134.5 125.76Z" fill="#FFFFFF" fill-opacity="1.000000" fill-rule="nonzero"/>
	<path id="Vector" d="M140.12 123.5L140.12 125.9L139.52 125.9L139.52 120.57L140.12 120.57L140.12 122.94L143.2 122.94L143.2 120.57L143.81 120.57L143.81 125.9L143.2 125.9L143.2 123.5L140.12 123.5Z" fill="#FFFFFF" fill-opacity="1.000000" fill-rule="nonzero"/>
	<path id="Vector" d="M150.07 125.9L149.47 125.9L149.47 121.13L147.68 121.13L147.68 120.57L151.87 120.57L151.87 121.13L150.08 121.13L150.08 125.9L150.07 125.9Z" fill="#FFFFFF" fill-opacity="1.000000" fill-rule="nonzero"/>
</svg>
