<svg width="11.250000" height="8.500000" viewBox="0 0 11.25 8.5" fill="none" xmlns="http://www.w3.org/2000/svg" xmlns:xlink="http://www.w3.org/1999/xlink">
	<desc>
			Created with Pixso.
	</desc>
	<defs/>
	<path id="mail" d="M9.95 0.75C10.1 0.75 10.24 0.8 10.34 0.89C10.43 0.98 10.5 1.11 10.5 1.25L10.5 7.25C10.5 7.52 10.25 7.75 9.95 7.75L1.29 7.75C0.99 7.75 0.75 7.52 0.75 7.25L0.75 1.25C0.75 1.11 0.81 0.98 0.9 0.89C1 0.8 1.14 0.75 1.29 0.75L9.95 0.75ZM0.9 0.89L4.85 4.54C5.28 4.93 5.96 4.93 6.39 4.54L10.34 0.89" stroke="#191614" stroke-opacity="1.000000" stroke-width="1.500000" stroke-linejoin="round"/>
</svg>
