<svg width="34.000000" height="34.000000" viewBox="0 0 34 34" fill="none" xmlns="http://www.w3.org/2000/svg" xmlns:xlink="http://www.w3.org/1999/xlink">
	<desc>
			Created with Pixso.
	</desc>
	<defs/>
	<path id="Vector" d="M17 33.5C26.11 33.5 33.5 26.11 33.5 17C33.5 7.88 26.11 0.5 17 0.5C7.88 0.5 0.5 7.88 0.5 17C0.5 26.11 7.88 33.5 17 33.5Z" fill="#C7A78A" fill-opacity="1.000000" fill-rule="nonzero"/>
	<path id="Vector" d="M17 33.5C7.88 33.5 0.5 26.11 0.5 17C0.5 7.88 7.88 0.5 17 0.5C26.11 0.5 33.5 7.88 33.5 17C33.5 26.11 26.11 33.5 17 33.5Z" stroke="#191614" stroke-opacity="1.000000" stroke-width="1.000000"/>
	<path id="path1009" d="M6.83 7.44L14.72 17.98L6.78 26.55L8.57 26.55L15.52 19.05L21.13 26.55L27.21 26.55L18.88 15.42L26.27 7.44L24.48 7.44L18.08 14.35L12.91 7.44L6.83 7.44ZM9.46 8.75L12.25 8.75L24.58 25.24L21.79 25.24L9.46 8.75Z" fill="#191614" fill-opacity="1.000000" fill-rule="nonzero"/>
</svg>
