<svg width="25" height="27" viewBox="0 0 25 27" fill="none" xmlns="http://www.w3.org/2000/svg">
<path d="M17.3335 17.2667V19.5167L18.5335 20.8667M8.00016 11.6667H1.3335M22.6668 9V6.33333C22.6668 4.86057 21.4729 3.66667 20.0002 3.66667H4.00016C2.5274 3.66667 1.3335 4.86057 1.3335 6.33333V22.3333C1.3335 23.8061 2.5274 25 4.00016 25H8.00016M16.0002 1V6.33333M8.00016 1V6.33333M23.3335 19.6667C23.3335 22.9804 20.6472 25.6667 17.3335 25.6667C14.0198 25.6667 11.3335 22.9804 11.3335 19.6667C11.3335 16.353 14.0198 13.6667 17.3335 13.6667C20.6472 13.6667 23.3335 16.353 23.3335 19.6667Z" stroke="white" stroke-width="1.5" stroke-linecap="round" stroke-linejoin="round"/>
</svg>
