<svg width="9.599976" height="9.599609" viewBox="0 0 9.59998 9.59961" fill="none" xmlns="http://www.w3.org/2000/svg" xmlns:xlink="http://www.w3.org/1999/xlink">
	<desc>
			Created with Pixso.
	</desc>
	<defs>
		<clipPath id="clip51_305">
			<rect id="solar:chef-hat-heart-line-duotone" width="9.600000" height="9.600000" fill="white" fill-opacity="0"/>
		</clipPath>
	</defs>
	<rect id="solar:chef-hat-heart-line-duotone" width="9.600000" height="9.600000" fill="#FFFFFF" fill-opacity="0"/>
	<g clip-path="url(#clip51_305)">
		<path id="Vector" d="M2 5.83L2.3 5.83C2.29 5.77 2.28 5.71 2.25 5.66C2.21 5.62 2.17 5.58 2.11 5.55L2 5.83ZM7.59 5.83L7.47 5.55C7.42 5.58 7.38 5.62 7.34 5.66C7.31 5.71 7.3 5.77 7.3 5.83L7.59 5.83ZM6.3 2.79C6.3 2.87 6.33 2.95 6.38 3.01C6.44 3.06 6.52 3.09 6.59 3.09C6.67 3.09 6.75 3.06 6.81 3.01C6.86 2.95 6.9 2.87 6.9 2.79L6.3 2.79ZM2.69 2.79C2.69 2.87 2.73 2.95 2.78 3.01C2.84 3.06 2.92 3.09 3 3.09C3.07 3.09 3.15 3.06 3.21 3.01C3.26 2.95 3.3 2.87 3.3 2.79L2.69 2.79ZM2.8 1.7C2.18 1.7 1.6 1.94 1.17 2.37C0.74 2.8 0.5 3.38 0.5 4L1.09 4C1.09 3.54 1.27 3.11 1.59 2.79C1.91 2.47 2.34 2.29 2.8 2.29L2.8 1.7ZM6.8 2.29C7.25 2.29 7.68 2.47 8 2.79C8.32 3.11 8.5 3.54 8.5 4L9.09 4C9.09 3.38 8.85 2.8 8.42 2.37C7.99 1.94 7.41 1.7 6.8 1.7L6.8 2.29ZM6 8.5L3.59 8.5L3.59 9.09L6 9.09L6 8.5ZM3.59 8.5C3.21 8.5 2.95 8.49 2.76 8.47C2.57 8.44 2.49 8.4 2.44 8.35L2.02 8.77C2.2 8.95 2.43 9.03 2.68 9.06C2.92 9.1 3.23 9.09 3.59 9.09L3.59 8.5ZM1.69 7.2C1.69 7.56 1.69 7.87 1.73 8.11C1.76 8.36 1.83 8.59 2.02 8.77L2.44 8.35C2.39 8.3 2.35 8.22 2.32 8.03C2.3 7.84 2.3 7.58 2.3 7.2L1.69 7.2ZM7.3 7.2C7.3 7.58 7.29 7.84 7.27 8.03C7.24 8.22 7.2 8.3 7.15 8.35L7.57 8.77C7.76 8.59 7.83 8.36 7.86 8.11C7.9 7.87 7.9 7.56 7.9 7.2L7.3 7.2ZM6 9.09C6.36 9.09 6.67 9.1 6.91 9.06C7.16 9.03 7.39 8.95 7.57 8.77L7.15 8.35C7.1 8.4 7.02 8.44 6.83 8.47C6.64 8.49 6.38 8.5 6 8.5L6 9.09ZM2.8 2.29C2.88 2.29 2.96 2.3 3.05 2.31L3.13 1.72C3.02 1.7 2.91 1.7 2.8 1.7L2.8 2.29ZM4.8 0.5C4.36 0.5 3.93 0.63 3.57 0.89C3.21 1.14 2.95 1.5 2.81 1.92L3.37 2.11C3.47 1.82 3.67 1.56 3.92 1.38C4.18 1.19 4.48 1.09 4.8 1.09L4.8 0.5ZM2.81 1.92C2.73 2.14 2.69 2.37 2.69 2.59L3.3 2.59C3.3 2.43 3.32 2.26 3.37 2.11L2.81 1.92ZM6.8 1.7C6.68 1.7 6.57 1.7 6.46 1.72L6.54 2.31C6.63 2.3 6.71 2.29 6.8 2.29L6.8 1.7ZM4.8 1.09C5.11 1.09 5.41 1.19 5.67 1.38C5.92 1.56 6.12 1.82 6.22 2.11L6.78 1.92C6.64 1.5 6.38 1.14 6.02 0.89C5.66 0.63 5.23 0.5 4.8 0.5L4.8 1.09ZM6.22 2.11C6.27 2.26 6.3 2.43 6.3 2.59L6.9 2.59C6.9 2.36 6.86 2.13 6.78 1.92L6.22 2.11L6.22 2.11ZM2.3 7.2L2.3 5.83L1.69 5.83L1.69 7.2L2.3 7.2ZM2.11 5.55C1.81 5.42 1.55 5.2 1.37 4.93C1.19 4.65 1.09 4.33 1.09 4L0.5 4C0.5 4.44 0.63 4.88 0.87 5.25C1.12 5.63 1.46 5.92 1.88 6.1L2.11 5.55ZM7.3 5.83L7.3 7.2L7.9 7.2L7.9 5.83L7.3 5.83ZM8.5 4C8.5 4.33 8.4 4.65 8.22 4.93C8.04 5.2 7.78 5.42 7.47 5.55L7.71 6.1C8.13 5.92 8.47 5.63 8.72 5.25C8.96 4.88 9.09 4.44 9.09 4L8.5 4ZM6.3 2.59L6.3 2.79L6.9 2.79L6.9 2.59L6.3 2.59ZM2.69 2.59L2.69 2.79L3.3 2.79L3.3 2.59L2.69 2.59Z" fill="#312C27" fill-opacity="1.000000" fill-rule="nonzero"/>
		<g opacity="0.500000">
			<path id="Vector" d="M4.8 3.99L4.59 4.21C4.64 4.26 4.72 4.29 4.8 4.29C4.87 4.29 4.95 4.26 5 4.21L4.8 3.99ZM4.59 5.22C4.42 5.1 4.24 4.94 4.1 4.78C3.95 4.61 3.9 4.48 3.9 4.39L3.3 4.39C3.3 4.7 3.47 4.98 3.65 5.18C3.83 5.39 4.05 5.57 4.23 5.7L4.59 5.22ZM3.9 4.39C3.9 4.16 4 4.06 4.09 4.03C4.19 4 4.38 4.01 4.59 4.21L5 3.78C4.67 3.46 4.26 3.34 3.89 3.47C3.52 3.6 3.3 3.96 3.3 4.39L3.9 4.39ZM5.36 5.7C5.54 5.57 5.76 5.39 5.95 5.18C6.12 4.98 6.3 4.7 6.3 4.39L5.7 4.39C5.7 4.48 5.64 4.61 5.49 4.78C5.35 4.95 5.17 5.1 5 5.22L5.36 5.7L5.36 5.7ZM6.3 4.39C6.3 3.96 6.07 3.6 5.7 3.47C5.33 3.34 4.92 3.46 4.59 3.78L5 4.21C5.21 4.01 5.4 4 5.5 4.03C5.59 4.06 5.7 4.16 5.7 4.39L6.3 4.39ZM4.23 5.7C4.38 5.81 4.55 5.95 4.8 5.95L4.8 5.35C4.79 5.35 4.78 5.35 4.76 5.34C4.7 5.3 4.64 5.26 4.59 5.22L4.23 5.7L4.23 5.7ZM5 5.22C4.95 5.26 4.89 5.3 4.83 5.34C4.81 5.35 4.8 5.35 4.8 5.35L4.8 5.95C5.04 5.95 5.21 5.81 5.36 5.7L5 5.22Z" fill="#312C27" fill-opacity="1.000000" fill-rule="nonzero"/>
		</g>
		<g opacity="0.500000">
			<path id="Vector" d="M2 7.2L7.59 7.2" stroke="#312C27" stroke-opacity="1.000000" stroke-width="1.500000" stroke-linejoin="round" stroke-linecap="round"/>
		</g>
	</g>
</svg>
