<svg width="174" height="57" viewBox="0 0 174 57" fill="none" xmlns="http://www.w3.org/2000/svg">
<path d="M94.4651 46.9467C92.491 45.248 90.5858 43.4346 88.7494 41.5065C86.959 39.5324 85.2833 37.5124 83.7224 35.4465C82.2074 33.3806 80.8072 31.2918 79.5218 29.1799C78.2822 27.0222 77.2263 24.9104 76.354 22.8445C74.7931 24.5432 73.2322 26.2647 71.6713 28.0093C70.1563 29.7079 68.802 31.4295 67.6084 33.174C66.4148 34.8726 65.4507 36.5942 64.7161 38.3388C63.9357 40.0374 63.5455 41.736 63.5455 43.4346C63.5455 45.4546 63.8898 47.1992 64.5784 48.6683C65.2211 50.0914 66.0934 51.2621 67.1952 52.1803C68.297 53.0985 69.5595 53.7641 70.9827 54.1773C72.4059 54.5905 73.875 54.7971 75.39 54.7971C78.4199 54.7971 81.6336 54.0855 85.0308 52.6623C88.4281 51.2391 91.5728 49.3339 94.4651 46.9467ZM85.926 6.11075C85.926 4.50394 85.5588 3.35622 84.8242 2.66758C84.1356 1.93304 83.3781 1.56577 82.5517 1.56577C81.8631 1.56577 81.1286 1.79532 80.3481 2.25441C79.6136 2.71349 78.9249 3.37917 78.2822 4.25144C77.6854 5.0778 77.1804 6.08779 76.7672 7.28143C76.354 8.47505 76.1475 9.78346 76.1475 11.2066C76.1475 13.8234 76.6295 16.6009 77.5936 19.5391C78.7413 18.3455 79.8202 17.1748 80.8302 16.0271C81.8402 14.8793 82.7124 13.7546 83.447 12.6528C84.2274 11.505 84.8242 10.4032 85.2374 9.34732C85.6965 8.24551 85.926 7.16665 85.926 6.11075ZM112.438 56.3809C112.438 56.5187 112.347 56.6564 112.163 56.7941C111.979 56.9318 111.704 57.0007 111.337 57.0007C108.582 56.1284 105.873 54.9119 103.211 53.351C100.548 51.7441 97.9542 49.8848 95.4292 47.773C93.6846 49.1044 91.8712 50.321 89.989 51.4228C88.1067 52.5246 86.1785 53.4657 84.2045 54.2462C82.2763 55.0266 80.3252 55.6234 78.3511 56.0366C76.4229 56.4498 74.5636 56.6564 72.7732 56.6564C71.0286 56.6564 69.3759 56.4039 67.815 55.8989C66.2541 55.4398 64.8998 54.7282 63.7521 53.7641C62.6043 52.7541 61.7091 51.5146 61.0664 50.0455C60.3778 48.5764 60.0334 46.8549 60.0334 44.8808C60.0334 42.769 60.5155 40.7031 61.4796 38.6831C62.4437 36.6172 63.6832 34.5972 65.1982 32.6231C66.7132 30.649 68.3889 28.7209 70.2252 26.8386C72.1075 24.9563 73.9438 23.12 75.7343 21.3295C74.4029 17.7486 73.7372 14.5121 73.7372 11.6198C73.7372 9.92118 74.0356 8.36028 74.6325 6.93711C75.2752 5.51393 76.0786 4.29735 77.0427 3.28735C78.0068 2.27736 79.0627 1.49691 80.2104 0.946005C81.404 0.349189 82.5288 0.0507812 83.5847 0.0507812C84.8242 0.0507812 85.949 0.463961 86.959 1.29032C87.969 2.07077 88.474 3.37917 88.474 5.21553C88.474 6.36325 88.1756 7.55688 87.5788 8.79641C87.0279 10.036 86.2704 11.3214 85.3063 12.6528C84.3881 13.9382 83.2863 15.2925 82.0008 16.7157C80.7613 18.093 79.4529 19.5161 78.0756 20.9852C79.5906 25.1629 81.8402 29.4095 84.8242 33.7249C87.8542 37.9944 91.5269 41.9885 95.8423 45.7071C98.1837 43.5953 100.066 41.2769 101.489 38.7519C102.912 36.227 103.624 33.5872 103.624 30.8327C103.624 29.9145 103.486 28.9963 103.211 28.0781C102.981 27.114 102.499 26.1041 101.765 25.0481C101.765 24.9563 101.902 24.8645 102.178 24.7727C102.453 24.635 102.706 24.5661 102.935 24.5661C103.578 24.5661 104.083 24.7956 104.45 25.2547C104.863 25.6679 105.162 26.1729 105.345 26.7697C105.575 27.3665 105.713 27.9863 105.759 28.629C105.85 29.2259 105.896 29.7079 105.896 30.0752C105.896 33.1051 105.047 36.0433 103.348 38.8897C101.696 41.6901 99.538 44.261 96.8753 46.6024C101.328 50.4128 106.355 53.5116 111.956 55.8989C112.278 56.0825 112.438 56.2432 112.438 56.3809Z" fill="#FFA55C"/>
<path d="M13.9086 31.7915C13.9086 30.3572 13.8161 29.1659 13.631 28.2175C13.4691 27.269 13.2378 26.7948 12.9371 26.7948C12.752 26.7948 12.5785 26.9336 12.4166 27.2112C12.2546 27.4657 12.1158 27.8358 12.0002 28.3216C11.9077 28.7842 11.8267 29.3394 11.7573 29.9871C11.711 30.6117 11.6879 31.2941 11.6879 32.0344C11.6879 33.3529 11.7804 34.7756 11.9655 36.3023C12.1505 37.8059 12.4744 39.2633 12.9371 40.6744C13.2609 39.1939 13.5038 37.6787 13.6657 36.1288C13.8277 34.5558 13.9086 33.11 13.9086 31.7915ZM28.4474 16.0382C28.4474 16.1538 28.4012 16.2464 28.3086 16.3158C28.2161 16.3852 28.1005 16.4661 27.9617 16.5587C27.2677 16.9751 26.7009 17.5534 26.2614 18.2936C25.8219 19.0339 25.4633 19.8435 25.1857 20.7225C24.9313 21.6016 24.7578 22.5037 24.6653 23.429C24.5727 24.3312 24.5265 25.164 24.5265 25.9274C24.5265 26.4594 24.5496 27.1187 24.5959 27.9052C24.6653 28.6686 24.7347 29.5129 24.8041 30.4382C24.8966 31.3635 24.966 32.3466 25.0123 33.3876C25.0817 34.4054 25.1164 35.4464 25.1164 36.5105C25.1164 38.0141 25.0238 39.4715 24.8388 40.8826C24.6768 42.2937 24.3414 43.5544 23.8325 44.6647C23.3467 45.7751 22.6643 46.6657 21.7853 47.3366C20.9062 48.0074 19.7612 48.3428 18.3501 48.3428C17.7024 48.3428 17.0893 48.2156 16.511 47.9611C15.9559 47.7298 15.4354 47.3944 14.9496 46.9549C14.4869 46.5153 14.059 46.0064 13.6657 45.4281C13.2956 44.8498 12.9602 44.2137 12.6595 43.5197C12.3587 44.3293 12.0002 45.0811 11.5838 45.7751C11.1905 46.4691 10.751 47.0705 10.2652 47.5794C9.77945 48.0884 9.24741 48.4816 8.66909 48.7592C8.09078 49.0368 7.47776 49.1756 6.83005 49.1756C5.83535 49.1756 4.99101 48.9211 4.29704 48.4122C3.62619 47.9033 3.07101 47.2325 2.63149 46.3997C2.19197 45.59 1.84498 44.6647 1.59052 43.6238C1.3592 42.5597 1.1857 41.484 1.07004 40.3968C0.954379 39.2864 0.873415 38.2108 0.827149 37.1698C0.804017 36.1057 0.780884 35.1688 0.757752 34.3592C0.711487 32.9018 0.734619 31.5254 0.827149 30.23C0.942812 28.9115 1.07004 27.7317 1.20884 26.6907C1.34763 25.6266 1.48643 24.7129 1.62522 23.9495C1.76402 23.1861 1.85655 22.6194 1.90281 22.2493C1.92595 22.1105 2.06474 22.018 2.3192 21.9717C2.59679 21.9254 2.83968 21.9023 3.04788 21.9023C3.2098 21.9023 3.3486 21.9254 3.46426 21.9717C3.57993 21.9948 3.63776 22.0642 3.63776 22.1799C3.63776 22.3187 3.57993 22.5616 3.46426 22.9086C3.3486 23.2324 3.17511 23.857 2.94378 24.7823C2.85125 25.1987 2.74715 25.8001 2.63149 26.5866C2.53896 27.35 2.44643 28.2175 2.3539 29.1891C2.2845 30.1606 2.22667 31.2016 2.18041 32.3119C2.13414 33.3992 2.11101 34.4633 2.11101 35.5042C2.11101 36.3139 2.14571 37.2045 2.2151 38.1761C2.2845 39.1245 2.40016 40.0729 2.56209 41.0214C2.72402 41.9467 2.94378 42.8488 3.22137 43.7279C3.49896 44.6069 3.83438 45.3819 4.22764 46.0527C4.64402 46.7235 5.12981 47.2556 5.68499 47.6488C6.24017 48.0652 6.88788 48.2734 7.62813 48.2734C8.18331 48.2734 8.69222 48.1346 9.15488 47.857C9.61753 47.5794 10.0455 47.1862 10.4387 46.6773C10.832 46.1915 11.179 45.6132 11.4797 44.9423C11.8036 44.2715 12.0927 43.5428 12.3472 42.7563C11.8151 41.299 11.4219 39.7491 11.1674 38.1067C10.913 36.4642 10.7857 34.9491 10.7857 33.5611C10.7857 32.5433 10.8204 31.537 10.8898 30.5423C10.9823 29.5476 11.1096 28.657 11.2715 27.8705C11.4334 27.084 11.6416 26.4478 11.8961 25.9621C12.1505 25.4763 12.4513 25.2334 12.7983 25.2334C13.0758 25.2334 13.3187 25.4069 13.5269 25.7539C13.7583 26.1009 13.9433 26.5751 14.0821 27.1765C14.244 27.778 14.3597 28.4951 14.4291 29.3278C14.5216 30.1375 14.5679 31.0165 14.5679 31.965C14.5679 33.4917 14.4638 35.0994 14.2556 36.7881C14.0474 38.4536 13.7236 40.0845 13.284 41.6806C13.5848 42.4903 13.9318 43.2421 14.325 43.9361C14.7183 44.6069 15.1578 45.1968 15.6436 45.7057C16.1525 46.2146 16.7077 46.6079 17.3091 46.8855C17.9337 47.1862 18.6161 47.3366 19.3563 47.3366C20.3742 47.3366 21.2069 47.0821 21.8547 46.5732C22.5024 46.0874 23.0113 45.4166 23.3814 44.5606C23.7515 43.6816 24.006 42.6753 24.1448 41.5418C24.2836 40.3852 24.353 39.1476 24.353 37.8291C24.353 36.6493 24.3067 35.4348 24.2142 34.1857C24.1448 32.9365 24.0638 31.6989 23.9713 30.4729C23.8788 29.2238 23.7862 28.0209 23.6937 26.8642C23.6243 25.6845 23.5896 24.5972 23.5896 23.6025C23.5896 22.8854 23.6937 22.0527 23.9019 21.1042C24.1332 20.1558 24.4339 19.2652 24.8041 18.4324C25.1973 17.5765 25.6368 16.8594 26.1226 16.2811C26.6315 15.6796 27.1636 15.3789 27.7188 15.3789C27.8807 15.3789 28.0426 15.4599 28.2046 15.6218C28.3665 15.7606 28.4474 15.8994 28.4474 16.0382Z" fill="#1F1711"/>
<path d="M39.2819 39.0782C39.2819 38.7312 39.2241 38.4536 39.1084 38.2455C38.9927 38.0141 38.8077 37.8985 38.5532 37.8985C38.16 37.8985 37.8592 38.0951 37.651 38.4883C37.4428 38.8585 37.3503 39.3327 37.3735 39.911C37.4428 41.137 37.6626 42.1664 38.0327 42.9992C38.426 42.4671 38.7267 41.8657 38.9349 41.1949C39.1662 40.524 39.2819 39.8185 39.2819 39.0782ZM48.6506 39.0435C48.4886 39.3905 48.3152 39.7491 48.1301 40.1192C47.945 40.4662 47.7368 40.8132 47.5055 41.1602C46.3258 42.9182 45.1344 44.2252 43.9315 45.0811C42.7286 45.937 41.6067 46.365 40.5657 46.365C39.2472 46.365 38.2409 45.7404 37.5469 44.4912C36.7373 45.3009 35.8236 45.9139 34.8057 46.3303C33.811 46.7467 32.8279 46.9549 31.8563 46.9549C31.278 46.9549 30.7228 46.8739 30.1908 46.712C29.6819 46.55 29.2424 46.3072 28.8722 45.9833C28.479 45.6363 28.1667 45.2084 27.9354 44.6994C27.704 44.1674 27.5884 43.5544 27.5884 42.8604C27.5884 42.0276 27.785 41.1833 28.1783 40.3274C28.5484 39.4483 29.0689 38.6618 29.7397 37.9679C30.4337 37.2508 31.2433 36.6609 32.1686 36.1982C33.0939 35.7356 34.1002 35.5042 35.1874 35.5042C36.0665 35.5042 36.7489 35.6315 37.2347 35.8859C37.7204 36.1173 37.9633 36.337 37.9633 36.5452C37.9633 36.6377 37.9171 36.7071 37.8245 36.7534C37.732 36.7997 37.651 36.8228 37.5816 36.8228C37.5585 36.7997 37.5354 36.7881 37.5122 36.7881H37.4775C37.2 36.5336 36.8877 36.337 36.5407 36.1982C36.1937 36.0363 35.6848 35.9553 35.0139 35.9553C34.1118 35.9553 33.2906 36.152 32.5503 36.5452C31.8332 36.9153 31.2202 37.4127 30.7113 38.0373C30.2024 38.6387 29.8091 39.3096 29.5315 40.0498C29.2539 40.79 29.1151 41.5187 29.1151 42.2358C29.1151 43.6238 29.439 44.63 30.0867 45.2546C30.7344 45.8792 31.544 46.1915 32.5156 46.1915C33.3021 46.1915 34.1233 45.9949 34.9792 45.6016C35.8351 45.2084 36.5985 44.6532 37.2694 43.9361C36.8992 43.1033 36.7142 42.0161 36.7142 40.6744C36.7142 39.7953 36.8761 39.032 37.2 38.3843C37.5238 37.7365 37.9865 37.4127 38.5879 37.4127C39.4207 37.4127 39.8371 37.8985 39.8371 38.87C39.8371 39.8416 39.6983 40.7206 39.4207 41.5071C39.1431 42.2705 38.773 42.9645 38.3103 43.5891C38.958 44.792 39.8602 45.3934 41.0168 45.3934C41.8959 45.3934 42.8327 45.0233 43.8274 44.2831C44.8453 43.5428 45.84 42.4671 46.8115 41.0561C47.0429 40.7091 47.2511 40.3505 47.4361 39.9804C47.6212 39.6103 47.8062 39.2402 47.9913 38.87L48.6506 39.0435Z" fill="#1F1711"/>
<path d="M53.4702 23.5331C53.4702 22.2146 53.2504 21.162 52.8109 20.3755C52.3945 19.5659 51.689 19.1611 50.6943 19.1611C50.3473 19.1611 50.0234 19.2767 49.7227 19.5081C49.4451 19.7163 49.2022 20.0054 48.994 20.3755C48.7859 20.7457 48.6239 21.1736 48.5083 21.6594C48.3926 22.1452 48.3348 22.6657 48.3348 23.2208C48.3348 24.7476 48.3463 26.1356 48.3695 27.3847C48.3926 28.6339 48.4157 29.8136 48.4389 30.924C48.4851 32.0344 48.5314 33.11 48.5777 34.151C48.6239 35.192 48.6702 36.2561 48.7165 37.3433C49.3873 36.4411 50.0119 35.4117 50.5902 34.2551C51.1685 33.0753 51.6659 31.8724 52.0822 30.6464C52.5218 29.3972 52.8572 28.1597 53.0885 26.9336C53.343 25.7076 53.4702 24.5741 53.4702 23.5331ZM66.0312 39.0435C65.8693 39.3905 65.6958 39.7491 65.5107 40.1192C65.3488 40.4893 65.1406 40.8363 64.8861 41.1602C63.6138 42.9645 62.168 44.3872 60.5488 45.4281C58.9295 46.446 57.3218 46.9549 55.7256 46.9549C54.7309 46.9549 53.7825 46.7235 52.8803 46.2609C51.9781 45.8214 51.1801 45.1043 50.4861 44.1096C50.3936 43.9939 50.3473 43.8898 50.3473 43.7973C50.3473 43.5891 50.4861 43.485 50.7637 43.485C50.7868 43.485 50.8678 43.5081 51.0066 43.5544C51.1916 43.5544 51.3998 43.6238 51.6312 43.7626C51.8856 43.8782 52.2442 43.9361 52.7068 43.9361C53.4239 43.9361 54.0948 43.8088 54.7194 43.5544C55.3439 43.2999 55.876 42.9761 56.3155 42.5828C56.7782 42.1664 57.1367 41.7038 57.3912 41.1949C57.6456 40.6628 57.7729 40.1192 57.7729 39.564C57.7729 38.87 57.5878 38.2686 57.2177 37.7597C56.8707 37.2508 56.2692 36.9963 55.4133 36.9963C54.5343 36.9963 53.7247 37.3086 52.9844 37.9332C52.2442 38.5346 51.5733 39.2749 50.9719 40.1539C50.3936 41.0098 49.8962 41.9235 49.4798 42.8951C49.0634 43.8435 48.7512 44.6763 48.543 45.3934C48.4273 45.7867 48.3232 46.0296 48.2307 46.1221C48.1381 46.2146 48.034 46.2609 47.9184 46.2609C47.6639 46.2609 47.5483 46.018 47.5714 45.5322C47.5714 45.324 47.583 45.0696 47.6061 44.7688C47.6292 44.4681 47.6524 44.1443 47.6755 43.7973C47.6755 43.4503 47.6871 43.1033 47.7102 42.7563C47.7333 42.3862 47.7449 42.0508 47.7449 41.75C47.7449 40.7091 47.7218 39.5177 47.6755 38.1761C47.6292 36.8112 47.5714 35.4117 47.502 33.9775C47.4326 32.5201 47.3748 31.0744 47.3285 29.6401C47.2822 28.2059 47.2591 26.8874 47.2591 25.6845C47.2591 24.736 47.3285 23.8223 47.4673 22.9433C47.6061 22.0411 47.8258 21.2546 48.1266 20.5837C48.4273 19.8898 48.809 19.3461 49.2716 18.9529C49.7343 18.5365 50.2779 18.3283 50.9025 18.3283C51.5502 18.3283 52.0938 18.444 52.5333 18.6753C52.996 18.8835 53.3661 19.1958 53.6437 19.6122C53.9213 20.0054 54.1179 20.4912 54.2336 21.0695C54.3724 21.6247 54.4418 22.2377 54.4418 22.9086C54.4418 24.0652 54.2798 25.3375 53.956 26.7254C53.6321 28.0903 53.2042 29.4666 52.6721 30.8546C52.1401 32.2426 51.5271 33.5842 50.8331 34.8797C50.1622 36.152 49.4683 37.2623 48.7512 38.2108C48.7974 38.9047 48.8206 39.6218 48.8206 40.3621C48.8437 41.1023 48.8784 41.8888 48.9246 42.7216C49.503 41.4724 50.1391 40.3968 50.8331 39.4946C51.1338 39.1014 51.4692 38.7197 51.8393 38.3496C52.2326 37.9563 52.6374 37.6093 53.0538 37.3086C53.4933 37.0079 53.956 36.765 54.4418 36.5799C54.9507 36.3948 55.4827 36.3023 56.0379 36.3023C56.917 36.3023 57.6803 36.5221 58.328 36.9616C58.9758 37.4011 59.2996 38.1067 59.2996 39.0782C59.2996 40.0035 59.0683 40.79 58.6056 41.4377C58.1661 42.0855 57.6109 42.6291 56.9401 43.0686C56.2692 43.485 55.5521 43.7973 54.7888 44.0055C54.0254 44.2137 53.3314 44.3409 52.7068 44.3872C52.6606 44.3872 52.6374 44.3987 52.6374 44.4219C52.6374 44.4681 52.6721 44.5375 52.7415 44.63C53.2042 45.1621 53.7247 45.5438 54.303 45.7751C54.8813 46.0064 55.4827 46.1221 56.1073 46.1221C56.8707 46.1221 57.6456 45.9833 58.4321 45.7057C59.2186 45.405 59.9705 45.0233 60.6876 44.5606C61.4047 44.0749 62.064 43.5312 62.6654 42.9298C63.29 42.3052 63.7989 41.6806 64.1921 41.0561C64.4235 40.7091 64.6317 40.3505 64.8167 39.9804C65.0018 39.6103 65.1868 39.2402 65.3719 38.87L66.0312 39.0435Z" fill="#1F1711"/>
<path d="M70.9229 36.8922C70.9229 36.2676 70.761 35.7587 70.4371 35.3654C70.1364 34.9491 69.6391 34.7409 68.9451 34.7409C68.575 34.7409 68.2395 34.8565 67.9388 35.0879C67.6381 35.3192 67.3836 35.6315 67.1754 36.0247C66.9672 36.3948 66.8053 36.8344 66.6896 37.3433C66.574 37.8522 66.5162 38.3843 66.5162 38.9394C66.5162 39.8185 66.6087 40.605 66.7937 41.299C67.0019 41.9698 67.2911 42.5597 67.6612 43.0686C68.147 42.6753 68.5865 42.2243 68.9798 41.7153C69.373 41.2064 69.7084 40.6744 69.986 40.1192C70.2868 39.564 70.5181 39.0088 70.68 38.4536C70.8419 37.8985 70.9229 37.378 70.9229 36.8922ZM79.7017 39.0435C79.5398 39.3905 79.3663 39.7491 79.1812 40.1192C79.0193 40.4662 78.8111 40.8132 78.5567 41.1602C77.4232 42.7794 76.1277 44.0055 74.6704 44.8382C73.2362 45.6479 71.8598 46.0527 70.5412 46.0527C69.801 46.0527 69.107 45.9255 68.4593 45.671C67.8347 45.4166 67.2911 45.0349 66.8284 44.5259C66.3658 44.017 65.9957 43.3809 65.7181 42.6175C65.4405 41.8541 65.3017 40.952 65.3017 39.911C65.3017 39.217 65.4058 38.523 65.614 37.8291C65.8222 37.1351 66.0998 36.5105 66.4468 35.9553C66.8169 35.4001 67.2333 34.9491 67.6959 34.6021C68.1817 34.2551 68.6906 34.0816 69.2227 34.0816C70.0786 34.0816 70.7032 34.336 71.0964 34.845C71.4897 35.3308 71.6863 35.9553 71.6863 36.7187C71.6863 37.7597 71.3624 38.8932 70.7147 40.1192C70.0901 41.3221 69.188 42.444 68.0082 43.485C68.8872 44.4797 70.0207 44.977 71.4087 44.977C72.4497 44.977 73.5369 44.6647 74.6704 44.0402C75.8039 43.3925 76.868 42.3978 77.8627 41.0561C78.1171 40.7322 78.3253 40.3852 78.4873 40.0151C78.6723 39.6218 78.8574 39.2402 79.0424 38.87L79.7017 39.0435Z" fill="#1F1711"/>
<path d="M109.763 30.2994C108.907 30.2994 108.086 30.3919 107.3 30.577C106.536 30.7621 105.854 30.9818 105.253 31.2363C104.674 31.4907 104.2 31.7568 103.83 32.0344C103.483 32.3119 103.309 32.5548 103.309 32.763C103.309 33.0406 103.633 33.1794 104.281 33.1794C105.391 33.1794 106.444 32.9134 107.439 32.3813C108.456 31.8493 109.37 31.1553 110.18 30.2994H109.763ZM119.861 35.5042C119.861 36.6377 119.537 37.8638 118.889 39.1823C118.265 40.5009 117.397 41.8079 116.287 43.1033C115.176 44.3987 113.858 45.6479 112.331 46.8508C110.804 48.0537 109.162 49.1178 107.404 50.0431C105.646 50.9684 103.795 51.697 101.852 52.2291C99.9089 52.7843 97.9658 53.0619 96.0227 53.0619C95.6988 53.0619 95.3402 53.0503 94.947 53.0272C94.5769 53.004 94.2299 52.9462 93.906 52.8537C93.5822 52.7843 93.3046 52.657 93.0733 52.472C92.8419 52.3101 92.7263 52.0787 92.7263 51.778C92.7263 51.3616 92.9345 50.9568 93.3508 50.5635C93.7672 50.1934 94.2993 49.8464 94.947 49.5226C95.5947 49.1987 96.3003 48.9096 97.0636 48.6551C97.827 48.4007 98.5557 48.1809 99.2496 47.9958C99.9668 47.8108 100.591 47.6604 101.123 47.5447C101.655 47.4522 102.014 47.406 102.199 47.406C102.338 47.406 102.442 47.4407 102.511 47.5101C102.581 47.5794 102.615 47.6488 102.615 47.7182C102.615 47.8339 102.558 47.8917 102.442 47.8917H101.991C101.389 47.8917 100.626 48.0074 99.7007 48.2387C98.7754 48.4701 97.8733 48.7592 96.9942 49.1062C96.1152 49.4532 95.3634 49.8349 94.7388 50.2513C94.1142 50.6908 93.8019 51.0956 93.8019 51.4657C93.8019 51.7202 93.8829 51.9168 94.0448 52.0556C94.2299 52.2175 94.4496 52.3448 94.7041 52.4373C94.9586 52.5298 95.2246 52.5876 95.5022 52.6108C95.7798 52.657 96.0227 52.6802 96.2308 52.6802C97.8733 52.6802 99.5504 52.4026 101.262 51.8474C102.997 51.2922 104.674 50.552 106.294 49.6267C107.936 48.7245 109.474 47.672 110.908 46.4691C112.366 45.2893 113.638 44.0633 114.725 42.791C115.813 41.4956 116.668 40.2117 117.293 38.9394C117.918 37.644 118.23 36.4411 118.23 35.3308C118.23 33.9659 117.663 32.8324 116.53 31.9303C115.419 31.005 113.58 30.4729 111.013 30.3341C109.972 31.3057 108.827 32.0922 107.577 32.6936C106.351 33.2951 105.102 33.5958 103.83 33.5958C102.928 33.5958 102.477 33.376 102.477 32.9365C102.477 32.6589 102.662 32.3466 103.032 31.9997C103.425 31.6295 103.957 31.2825 104.628 30.9587C105.322 30.6348 106.143 30.3688 107.092 30.1606C108.04 29.9293 109.081 29.8136 110.214 29.8136H110.631C111.394 28.9115 112.007 27.9283 112.47 26.8642C112.933 25.777 113.164 24.7129 113.164 23.6719C113.164 22.978 113.037 22.3187 112.782 21.6941C112.551 21.0464 112.158 20.4912 111.602 20.0286C111.07 19.5659 110.365 19.1958 109.486 18.9182C108.63 18.6406 107.589 18.5018 106.363 18.5018C105.53 18.5018 104.374 18.6175 102.893 18.8488C101.436 19.0801 99.8511 19.4387 98.1393 19.9245C96.4506 20.3871 94.7272 20.977 92.9692 21.6941C91.2111 22.4112 89.6149 23.244 88.1807 24.1924C86.7465 25.1409 85.5783 26.2165 84.6761 27.4194C83.774 28.6223 83.3229 29.9524 83.3229 31.4098C83.3229 31.5948 83.2882 31.7568 83.2188 31.8956C83.1494 32.0112 83.08 32.0691 83.0106 32.0691C82.918 32.0691 82.8487 31.9765 82.8024 31.7915C82.733 31.5833 82.6983 31.2479 82.6983 30.7852C82.9065 29.2816 83.5195 27.9168 84.5373 26.6907C85.5552 25.4647 86.8159 24.3775 88.3195 23.429C89.8 22.4575 91.4308 21.6247 93.212 20.9307C94.9933 20.2367 96.7513 19.67 98.4863 19.2305C100.244 18.7678 101.875 18.4324 103.379 18.2242C104.906 17.9929 106.155 17.8772 107.126 17.8772C108.537 17.8772 109.729 18.016 110.7 18.2936C111.695 18.5481 112.505 18.9066 113.129 19.3693C113.754 19.8088 114.205 20.3408 114.482 20.9654C114.76 21.59 114.899 22.2493 114.899 22.9433C114.899 24.0768 114.587 25.2565 113.962 26.4825C113.361 27.6854 112.539 28.8074 111.498 29.8483C112.979 29.9177 114.251 30.1144 115.315 30.4382C116.379 30.7389 117.247 31.1438 117.918 31.6527C118.588 32.1385 119.074 32.7168 119.375 33.3876C119.699 34.0353 119.861 34.7409 119.861 35.5042ZM101.47 44.63C101.47 44.9539 101.447 45.1852 101.401 45.324C101.355 45.4628 101.227 45.5322 101.019 45.5322C100.557 45.5785 100.325 45.1158 100.325 44.1443C100.302 40.952 100.267 38.0373 100.221 35.4001C100.198 32.763 100.163 30.4845 100.117 28.5645C100.094 26.6213 100.071 25.083 100.048 23.9495C100.025 22.816 100.013 22.1683 100.013 22.0064C100.013 21.8213 100.071 21.6941 100.187 21.6247C100.302 21.5553 100.441 21.4975 100.603 21.4512C100.788 21.4512 100.927 21.509 101.019 21.6247C101.135 21.7404 101.193 21.8792 101.193 22.0411C101.193 23.8917 101.204 25.8001 101.227 27.7664C101.251 29.7095 101.274 31.6527 101.297 33.5958C101.343 35.5389 101.378 37.4474 101.401 39.3211C101.447 41.1949 101.47 42.9645 101.47 44.63Z" fill="#1F1711"/>
<path d="M133.348 39.0782C133.348 38.7312 133.29 38.4536 133.175 38.2455C133.059 38.0141 132.874 37.8985 132.62 37.8985C132.226 37.8985 131.926 38.0951 131.717 38.4883C131.509 38.8585 131.417 39.3327 131.44 39.911C131.509 41.137 131.729 42.1664 132.099 42.9992C132.492 42.4671 132.793 41.8657 133.001 41.1949C133.233 40.524 133.348 39.8185 133.348 39.0782ZM142.717 39.0435C142.555 39.3905 142.382 39.7491 142.197 40.1192C142.011 40.4662 141.803 40.8132 141.572 41.1602C140.392 42.9182 139.201 44.2252 137.998 45.0811C136.795 45.937 135.673 46.365 134.632 46.365C133.314 46.365 132.307 45.7404 131.613 44.4912C130.804 45.3009 129.89 45.9139 128.872 46.3303C127.877 46.7467 126.894 46.9549 125.923 46.9549C125.344 46.9549 124.789 46.8739 124.257 46.712C123.748 46.55 123.309 46.3072 122.939 45.9833C122.545 45.6363 122.233 45.2084 122.002 44.6994C121.77 44.1674 121.655 43.5544 121.655 42.8604C121.655 42.0276 121.851 41.1833 122.245 40.3274C122.615 39.4483 123.135 38.6618 123.806 37.9679C124.5 37.2508 125.31 36.6609 126.235 36.1982C127.16 35.7356 128.167 35.5042 129.254 35.5042C130.133 35.5042 130.815 35.6315 131.301 35.8859C131.787 36.1173 132.03 36.337 132.03 36.5452C132.03 36.6377 131.984 36.7071 131.891 36.7534C131.798 36.7997 131.717 36.8228 131.648 36.8228C131.625 36.7997 131.602 36.7881 131.579 36.7881H131.544C131.266 36.5336 130.954 36.337 130.607 36.1982C130.26 36.0363 129.751 35.9553 129.08 35.9553C128.178 35.9553 127.357 36.152 126.617 36.5452C125.9 36.9153 125.287 37.4127 124.778 38.0373C124.269 38.6387 123.876 39.3096 123.598 40.0498C123.32 40.79 123.182 41.5187 123.182 42.2358C123.182 43.6238 123.505 44.63 124.153 45.2546C124.801 45.8792 125.61 46.1915 126.582 46.1915C127.369 46.1915 128.19 45.9949 129.046 45.6016C129.902 45.2084 130.665 44.6532 131.336 43.9361C130.966 43.1033 130.781 42.0161 130.781 40.6744C130.781 39.7953 130.943 39.032 131.266 38.3843C131.59 37.7365 132.053 37.4127 132.654 37.4127C133.487 37.4127 133.904 37.8985 133.904 38.87C133.904 39.8416 133.765 40.7206 133.487 41.5071C133.21 42.2705 132.839 42.9645 132.377 43.5891C133.024 44.792 133.927 45.3934 135.083 45.3934C135.962 45.3934 136.899 45.0233 137.894 44.2831C138.912 43.5428 139.906 42.4671 140.878 41.0561C141.109 40.7091 141.317 40.3505 141.503 39.9804C141.688 39.6103 141.873 39.2402 142.058 38.87L142.717 39.0435Z" fill="#1F1711"/>
<path d="M147.537 23.5331C147.537 22.2146 147.317 21.162 146.877 20.3755C146.461 19.5659 145.755 19.1611 144.761 19.1611C144.414 19.1611 144.09 19.2767 143.789 19.5081C143.512 19.7163 143.269 20.0054 143.06 20.3755C142.852 20.7457 142.69 21.1736 142.575 21.6594C142.459 22.1452 142.401 22.6657 142.401 23.2208C142.401 24.7476 142.413 26.1356 142.436 27.3847C142.459 28.6339 142.482 29.8136 142.505 30.924C142.552 32.0344 142.598 33.11 142.644 34.151C142.69 35.192 142.737 36.2561 142.783 37.3433C143.454 36.4411 144.078 35.4117 144.657 34.2551C145.235 33.0753 145.732 31.8724 146.149 30.6464C146.588 29.3972 146.924 28.1597 147.155 26.9336C147.409 25.7076 147.537 24.5741 147.537 23.5331ZM160.098 39.0435C159.936 39.3905 159.762 39.7491 159.577 40.1192C159.415 40.4893 159.207 40.8363 158.953 41.1602C157.68 42.9645 156.234 44.3872 154.615 45.4281C152.996 46.446 151.388 46.9549 149.792 46.9549C148.797 46.9549 147.849 46.7235 146.947 46.2609C146.045 45.8214 145.247 45.1043 144.553 44.1096C144.46 43.9939 144.414 43.8898 144.414 43.7973C144.414 43.5891 144.553 43.485 144.83 43.485C144.853 43.485 144.934 43.5081 145.073 43.5544C145.258 43.5544 145.466 43.6238 145.698 43.7626C145.952 43.8782 146.311 43.9361 146.773 43.9361C147.49 43.9361 148.161 43.8088 148.786 43.5544C149.41 43.2999 149.942 42.9761 150.382 42.5828C150.845 42.1664 151.203 41.7038 151.458 41.1949C151.712 40.6628 151.839 40.1192 151.839 39.564C151.839 38.87 151.654 38.2686 151.284 37.7597C150.937 37.2508 150.336 36.9963 149.48 36.9963C148.601 36.9963 147.791 37.3086 147.051 37.9332C146.311 38.5346 145.64 39.2749 145.038 40.1539C144.46 41.0098 143.963 41.9235 143.546 42.8951C143.13 43.8435 142.818 44.6763 142.609 45.3934C142.494 45.7867 142.39 46.0296 142.297 46.1221C142.205 46.2146 142.1 46.2609 141.985 46.2609C141.73 46.2609 141.615 46.018 141.638 45.5322C141.638 45.324 141.649 45.0696 141.673 44.7688C141.696 44.4681 141.719 44.1443 141.742 43.7973C141.742 43.4503 141.753 43.1033 141.777 42.7563C141.8 42.3862 141.811 42.0508 141.811 41.75C141.811 40.7091 141.788 39.5177 141.742 38.1761C141.696 36.8112 141.638 35.4117 141.568 33.9775C141.499 32.5201 141.441 31.0744 141.395 29.6401C141.349 28.2059 141.326 26.8874 141.326 25.6845C141.326 24.736 141.395 23.8223 141.534 22.9433C141.673 22.0411 141.892 21.2546 142.193 20.5837C142.494 19.8898 142.875 19.3461 143.338 18.9529C143.801 18.5365 144.344 18.3283 144.969 18.3283C145.617 18.3283 146.16 18.444 146.6 18.6753C147.062 18.8835 147.433 19.1958 147.71 19.6122C147.988 20.0054 148.184 20.4912 148.3 21.0695C148.439 21.6247 148.508 22.2377 148.508 22.9086C148.508 24.0652 148.346 25.3375 148.022 26.7254C147.699 28.0903 147.271 29.4666 146.739 30.8546C146.207 32.2426 145.593 33.5842 144.9 34.8797C144.229 36.152 143.535 37.2623 142.818 38.2108C142.864 38.9047 142.887 39.6218 142.887 40.3621C142.91 41.1023 142.945 41.8888 142.991 42.7216C143.569 41.4724 144.206 40.3968 144.9 39.4946C145.2 39.1014 145.536 38.7197 145.906 38.3496C146.299 37.9563 146.704 37.6093 147.12 37.3086C147.56 37.0079 148.022 36.765 148.508 36.5799C149.017 36.3948 149.549 36.3023 150.104 36.3023C150.983 36.3023 151.747 36.5221 152.394 36.9616C153.042 37.4011 153.366 38.1067 153.366 39.0782C153.366 40.0035 153.135 40.79 152.672 41.4377C152.233 42.0855 151.677 42.6291 151.007 43.0686C150.336 43.485 149.619 43.7973 148.855 44.0055C148.092 44.2137 147.398 44.3409 146.773 44.3872C146.727 44.3872 146.704 44.3987 146.704 44.4219C146.704 44.4681 146.739 44.5375 146.808 44.63C147.271 45.1621 147.791 45.5438 148.369 45.7751C148.948 46.0064 149.549 46.1221 150.174 46.1221C150.937 46.1221 151.712 45.9833 152.499 45.7057C153.285 45.405 154.037 45.0233 154.754 44.5606C155.471 44.0749 156.13 43.5312 156.732 42.9298C157.356 42.3052 157.865 41.6806 158.259 41.0561C158.49 40.7091 158.698 40.3505 158.883 39.9804C159.068 39.6103 159.253 39.2402 159.438 38.87L160.098 39.0435Z" fill="#1F1711"/>
<path d="M164.989 36.8922C164.989 36.2676 164.827 35.7587 164.504 35.3654C164.203 34.9491 163.705 34.7409 163.012 34.7409C162.641 34.7409 162.306 34.8565 162.005 35.0879C161.705 35.3192 161.45 35.6315 161.242 36.0247C161.034 36.3948 160.872 36.8344 160.756 37.3433C160.64 37.8522 160.583 38.3843 160.583 38.9394C160.583 39.8185 160.675 40.605 160.86 41.299C161.068 41.9698 161.358 42.5597 161.728 43.0686C162.213 42.6753 162.653 42.2243 163.046 41.7153C163.439 41.2064 163.775 40.6744 164.052 40.1192C164.353 39.564 164.585 39.0088 164.746 38.4536C164.908 37.8985 164.989 37.378 164.989 36.8922ZM173.768 39.0435C173.606 39.3905 173.433 39.7491 173.248 40.1192C173.086 40.4662 172.878 40.8132 172.623 41.1602C171.49 42.7794 170.194 44.0055 168.737 44.8382C167.303 45.6479 165.926 46.0527 164.608 46.0527C163.867 46.0527 163.173 45.9255 162.526 45.671C161.901 45.4166 161.358 45.0349 160.895 44.5259C160.432 44.017 160.062 43.3809 159.785 42.6175C159.507 41.8541 159.368 40.952 159.368 39.911C159.368 39.217 159.472 38.523 159.68 37.8291C159.889 37.1351 160.166 36.5105 160.513 35.9553C160.883 35.4001 161.3 34.9491 161.762 34.6021C162.248 34.2551 162.757 34.0816 163.289 34.0816C164.145 34.0816 164.77 34.336 165.163 34.845C165.556 35.3308 165.753 35.9553 165.753 36.7187C165.753 37.7597 165.429 38.8932 164.781 40.1192C164.157 41.3221 163.254 42.444 162.075 43.485C162.954 44.4797 164.087 44.977 165.475 44.977C166.516 44.977 167.603 44.6647 168.737 44.0402C169.87 43.3925 170.934 42.3978 171.929 41.0561C172.184 40.7322 172.392 40.3852 172.554 40.0151C172.739 39.6218 172.924 39.2402 173.109 38.87L173.768 39.0435Z" fill="#1F1711"/>
</svg>
