<svg width="584.080261" height="10.891602" viewBox="0 0 584.08 10.8916" fill="none" xmlns="http://www.w3.org/2000/svg" xmlns:xlink="http://www.w3.org/1999/xlink">
	<desc>
			Created with Pixso.
	</desc>
	<defs/>
	<path id="text" d="M270.25 10.48C270.94 10.75 271.68 10.89 272.49 10.89Q273.71 10.89 274.73 10.48C275.42 10.22 276 9.85 276.5 9.36C277 8.88 277.39 8.3 277.66 7.64C277.93 6.97 278.07 6.23 278.07 5.44C278.07 4.64 277.93 3.91 277.66 3.24C277.39 2.58 277 2.01 276.5 1.52C276 1.04 275.42 0.66 274.73 0.4C274.05 0.13 273.31 -0.01 272.49 -0.01C271.68 -0.01 270.94 0.13 270.25 0.4C269.58 0.66 268.99 1.04 268.49 1.52C268 2.01 267.61 2.58 267.34 3.24C267.07 3.91 266.94 4.64 266.94 5.44C266.94 6.23 267.07 6.97 267.34 7.64C267.61 8.3 268 8.88 268.49 9.36C268.99 9.85 269.58 10.22 270.25 10.48ZM75.58 9.95C76.34 10.38 77.21 10.59 78.19 10.59C78.95 10.59 79.64 10.46 80.23 10.19C80.83 9.92 81.32 9.53 81.72 9.04C82.12 8.53 82.4 7.94 82.56 7.25Q82.81 6.21 82.64 4.94L78.5 4.94L78.5 6.55L80.72 6.55C80.71 6.74 80.69 6.92 80.64 7.09C80.55 7.42 80.39 7.71 80.16 7.96C79.94 8.2 79.66 8.39 79.34 8.53C79.01 8.67 78.65 8.73 78.24 8.73C77.66 8.73 77.13 8.6 76.68 8.32C76.22 8.05 75.86 7.68 75.6 7.2C75.34 6.73 75.21 6.18 75.21 5.55L75.21 5.43C75.21 4.8 75.34 4.26 75.6 3.79C75.86 3.31 76.22 2.94 76.69 2.67Q76.78 2.61 76.88 2.56Q77.51 2.25 78.3 2.25Q78.73 2.25 79.13 2.37Q79.3 2.42 79.46 2.49C79.84 2.64 80.17 2.87 80.46 3.2L81.84 1.83C81.39 1.37 80.86 1.02 80.26 0.76C79.67 0.5 79.01 0.37 78.27 0.37Q76.81 0.37 75.68 0.99Q75.65 1 75.63 1.02C74.86 1.45 74.26 2.04 73.82 2.79C73.39 3.55 73.18 4.43 73.18 5.43L73.18 5.55C73.18 6.54 73.39 7.41 73.82 8.17C74.25 8.93 74.84 9.52 75.58 9.95ZM171.76 9.95C172.52 10.38 173.38 10.59 174.36 10.59Q175.51 10.59 176.41 10.19C177 9.92 177.5 9.53 177.89 9.04C178.29 8.53 178.57 7.94 178.73 7.25C178.9 6.56 178.93 5.79 178.81 4.94L174.67 4.94L174.67 6.55L176.89 6.55C176.89 6.74 176.86 6.92 176.81 7.09Q176.74 7.36 176.61 7.59Q176.49 7.79 176.34 7.96C176.11 8.2 175.84 8.39 175.51 8.53C175.18 8.67 174.82 8.73 174.42 8.73C173.83 8.73 173.31 8.6 172.85 8.32C172.39 8.05 172.03 7.68 171.77 7.2C171.51 6.73 171.38 6.18 171.38 5.55L171.38 5.43C171.38 4.8 171.51 4.26 171.77 3.79C172.03 3.31 172.4 2.94 172.86 2.67C173.33 2.39 173.87 2.25 174.47 2.25Q174.91 2.25 175.3 2.37Q175.47 2.42 175.64 2.49C176.01 2.64 176.34 2.87 176.63 3.2L178.02 1.83C177.56 1.37 177.03 1.02 176.43 0.76C175.85 0.5 175.18 0.37 174.45 0.37C173.45 0.37 172.57 0.59 171.8 1.02C171.04 1.45 170.43 2.04 169.99 2.79L169.99 2.8Q169.35 3.93 169.35 5.43L169.35 5.55Q169.35 6.99 169.95 8.1Q169.97 8.13 169.99 8.17C170.42 8.93 171.01 9.52 171.76 9.95ZM208.74 10.23C209.36 10.47 210.02 10.59 210.73 10.59Q211.72 10.59 212.58 10.26C213.15 10.02 213.65 9.7 214.1 9.29L212.83 7.81C212.26 8.38 211.56 8.66 210.73 8.66C210.29 8.66 209.88 8.59 209.51 8.44Q209.11 8.28 208.78 8.02Q208.65 7.92 208.53 7.81C208.26 7.53 208.05 7.2 207.9 6.83C207.75 6.44 207.68 6.02 207.68 5.57L207.68 5.4C207.68 4.94 207.75 4.53 207.9 4.15C208.05 3.77 208.26 3.44 208.53 3.17Q208.7 3 208.89 2.86Q209.18 2.66 209.51 2.53C209.88 2.38 210.29 2.3 210.73 2.3C211.53 2.3 212.21 2.57 212.77 3.1L214.03 1.6C213.6 1.21 213.11 0.91 212.56 0.69Q211.74 0.37 210.73 0.37C210.02 0.37 209.36 0.5 208.74 0.75C208.12 0.99 207.58 1.34 207.12 1.79C206.66 2.23 206.3 2.77 206.04 3.38C205.78 3.99 205.65 4.66 205.65 5.4L205.65 5.57C205.65 6.3 205.78 6.98 206.04 7.6C206.3 8.2 206.66 8.73 207.12 9.18C207.58 9.63 208.12 9.98 208.74 10.23ZM363.46 9.95C364.22 10.38 365.09 10.59 366.07 10.59Q367.21 10.59 368.11 10.19C368.71 9.92 369.2 9.53 369.59 9.04C370 8.53 370.28 7.94 370.43 7.25C370.6 6.56 370.63 5.79 370.52 4.94L366.37 4.94L366.37 6.55L368.6 6.55Q368.59 6.83 368.52 7.09Q368.44 7.36 368.31 7.59Q368.2 7.79 368.04 7.96C367.82 8.2 367.54 8.39 367.21 8.53C366.89 8.67 366.52 8.73 366.12 8.73C365.53 8.73 365.01 8.6 364.55 8.32C364.1 8.05 363.74 7.68 363.48 7.2C363.21 6.73 363.08 6.18 363.08 5.55L363.08 5.43C363.08 4.8 363.21 4.26 363.48 3.79C363.74 3.31 364.1 2.94 364.57 2.67C365.03 2.39 365.57 2.25 366.18 2.25Q366.61 2.25 367.01 2.37Q367.18 2.42 367.34 2.49C367.71 2.64 368.04 2.87 368.33 3.2L369.72 1.83C369.26 1.37 368.74 1.02 368.14 0.76C367.55 0.5 366.89 0.37 366.15 0.37C365.15 0.37 364.27 0.59 363.5 1.02C362.74 1.45 362.14 2.04 361.7 2.79L361.69 2.8Q361.05 3.93 361.05 5.43L361.05 5.55Q361.05 6.99 361.66 8.1Q361.68 8.13 361.7 8.17C362.13 8.93 362.72 9.52 363.46 9.95ZM13.63 9.95C14.37 10.37 15.2 10.58 16.12 10.58Q17.35 10.58 18.34 10.09Q18.48 10.03 18.61 9.95C19.34 9.52 19.91 8.93 20.33 8.17Q20.98 7.04 20.98 5.52L20.98 5.43Q20.98 3.91 20.33 2.78C19.91 2.02 19.34 1.44 18.61 1.02C17.88 0.6 17.05 0.39 16.12 0.39C15.2 0.39 14.37 0.6 13.63 1.02C12.89 1.44 12.31 2.02 11.88 2.78C11.46 3.54 11.25 4.42 11.25 5.43L11.25 5.52C11.25 6.53 11.46 7.41 11.88 8.17C12.31 8.93 12.89 9.52 13.63 9.95ZM54.3 10.16C54.85 10.44 55.5 10.58 56.25 10.58C56.97 10.58 57.61 10.45 58.16 10.19C58.72 9.93 59.14 9.56 59.45 9.09C59.77 8.62 59.93 8.06 59.93 7.43C59.93 6.92 59.84 6.51 59.66 6.18C59.49 5.86 59.25 5.59 58.96 5.4C58.68 5.19 58.37 5.03 58.02 4.91C57.68 4.79 57.33 4.68 56.97 4.59C56.63 4.49 56.31 4.4 56.02 4.31C55.74 4.2 55.51 4.07 55.34 3.9C55.16 3.73 55.07 3.51 55.07 3.23C55.07 2.87 55.21 2.59 55.49 2.37C55.77 2.15 56.14 2.04 56.6 2.04C56.95 2.04 57.27 2.11 57.56 2.26C57.85 2.41 58.14 2.64 58.43 2.93L59.69 1.67C59.35 1.28 58.92 0.97 58.37 0.74C57.84 0.5 57.25 0.39 56.6 0.39C55.9 0.39 55.29 0.51 54.76 0.76C54.24 1.01 53.83 1.36 53.54 1.81C53.26 2.26 53.11 2.79 53.11 3.41Q53.11 4.14 53.36 4.61C53.54 4.93 53.77 5.19 54.05 5.4C54.34 5.59 54.65 5.76 54.99 5.89C55.33 6.01 55.67 6.12 56.01 6.22C56.35 6.33 56.67 6.44 56.95 6.56C57.24 6.67 57.46 6.82 57.63 7.01C57.81 7.19 57.9 7.42 57.9 7.72C57.9 8.07 57.76 8.36 57.48 8.59C57.21 8.81 56.83 8.93 56.33 8.93C55.94 8.93 55.57 8.84 55.21 8.67C54.87 8.51 54.5 8.23 54.1 7.85L52.89 9.07C53.28 9.51 53.75 9.88 54.3 10.16ZM102.35 9.95C103.09 10.37 103.92 10.58 104.84 10.58C105.78 10.58 106.61 10.37 107.34 9.95C108.06 9.52 108.64 8.93 109.06 8.17C109.49 7.41 109.7 6.53 109.7 5.52L109.7 5.43C109.7 4.42 109.49 3.54 109.06 2.78C108.64 2.02 108.06 1.44 107.34 1.02C106.61 0.6 105.78 0.39 104.84 0.39C103.92 0.39 103.09 0.6 102.35 1.02C101.61 1.44 101.03 2.02 100.6 2.78C100.18 3.54 99.97 4.42 99.97 5.43L99.97 5.52C99.97 6.53 100.18 7.41 100.6 8.17C101.03 8.93 101.61 9.52 102.35 9.95ZM156.3 9.95C157.03 10.37 157.86 10.58 158.79 10.58C159.72 10.58 160.55 10.37 161.28 9.95C162.01 9.52 162.58 8.93 163 8.17C163.43 7.41 163.65 6.53 163.65 5.52L163.65 5.43C163.65 4.42 163.43 3.54 163 2.78C162.58 2.02 162.01 1.44 161.28 1.02C160.55 0.6 159.72 0.39 158.79 0.39C157.86 0.39 157.03 0.6 156.3 1.02C155.56 1.44 154.98 2.02 154.55 2.78C154.13 3.54 153.92 4.42 153.92 5.43L153.92 5.52C153.92 6.53 154.13 7.41 154.55 8.17C154.98 8.93 155.56 9.52 156.3 9.95ZM404.6 10.16C405.15 10.44 405.8 10.58 406.54 10.58C407.27 10.58 407.91 10.45 408.46 10.19C409.01 9.93 409.44 9.56 409.75 9.09C410.07 8.62 410.23 8.06 410.23 7.43C410.23 6.92 410.14 6.51 409.96 6.18C409.78 5.86 409.55 5.59 409.26 5.4C408.98 5.19 408.67 5.03 408.32 4.91C407.98 4.79 407.63 4.68 407.27 4.59C406.93 4.49 406.61 4.4 406.32 4.31C406.04 4.2 405.81 4.07 405.63 3.9C405.46 3.73 405.37 3.51 405.37 3.23C405.37 2.87 405.51 2.59 405.79 2.37C406.07 2.15 406.44 2.04 406.89 2.04C407.25 2.04 407.57 2.11 407.86 2.26C408.15 2.41 408.44 2.64 408.73 2.93L409.99 1.67C409.65 1.28 409.21 0.97 408.67 0.74C408.14 0.5 407.55 0.39 406.89 0.39Q405.84 0.39 405.06 0.76C404.54 1.01 404.13 1.36 403.84 1.81C403.55 2.26 403.41 2.79 403.41 3.41C403.41 3.9 403.49 4.3 403.66 4.61C403.84 4.93 404.07 5.19 404.35 5.4C404.64 5.59 404.95 5.76 405.28 5.89C405.63 6.01 405.97 6.12 406.31 6.22C406.65 6.33 406.96 6.44 407.24 6.56C407.53 6.67 407.76 6.82 407.93 7.01C408.11 7.19 408.2 7.42 408.2 7.72Q408.2 7.94 408.12 8.13Q408.02 8.39 407.78 8.59C407.51 8.81 407.12 8.93 406.63 8.93C406.24 8.93 405.86 8.84 405.51 8.67C405.16 8.51 404.79 8.23 404.4 7.85L403.18 9.07C403.58 9.51 404.05 9.88 404.6 10.16ZM451.11 10.16C451.66 10.44 452.31 10.58 453.05 10.58C453.78 10.58 454.42 10.45 454.97 10.19C455.52 9.93 455.95 9.56 456.26 9.09C456.58 8.62 456.73 8.06 456.73 7.43C456.73 6.92 456.65 6.51 456.47 6.18C456.29 5.86 456.06 5.59 455.77 5.4C455.49 5.19 455.18 5.03 454.83 4.91C454.48 4.79 454.13 4.68 453.78 4.59Q453.26 4.45 452.83 4.31C452.55 4.2 452.32 4.07 452.14 3.9C451.96 3.73 451.88 3.51 451.88 3.23C451.88 2.87 452.02 2.59 452.3 2.37C452.58 2.15 452.94 2.04 453.4 2.04C453.76 2.04 454.08 2.11 454.37 2.26C454.66 2.41 454.95 2.64 455.24 2.93L456.5 1.67Q455.99 1.09 455.18 0.74C454.65 0.5 454.06 0.39 453.4 0.39Q452.35 0.39 451.57 0.76C451.05 1.01 450.64 1.36 450.35 1.81C450.06 2.26 449.92 2.79 449.92 3.41Q449.92 4.14 450.17 4.61C450.35 4.93 450.57 5.19 450.85 5.4C451.14 5.59 451.46 5.76 451.79 5.89C452.14 6.01 452.48 6.12 452.81 6.22C453.16 6.33 453.47 6.44 453.75 6.56C454.04 6.67 454.27 6.82 454.44 7.01C454.62 7.19 454.7 7.42 454.7 7.72C454.7 8.07 454.56 8.36 454.28 8.59C454.01 8.81 453.63 8.93 453.14 8.93C452.74 8.93 452.37 8.84 452.02 8.67C451.67 8.51 451.3 8.23 450.91 7.85L449.69 9.07C450.08 9.51 450.56 9.88 451.11 10.16ZM537.86 8.93L537.86 10.38L544.67 10.38L544.67 8.62L540.65 8.62L542.58 6.67C542.98 6.27 543.31 5.89 543.55 5.52C543.79 5.15 543.97 4.79 544.08 4.43C544.19 4.07 544.25 3.71 544.25 3.37Q544.25 2.65 543.96 2.08Q543.9 1.96 543.83 1.84C543.55 1.4 543.17 1.06 542.68 0.82C542.19 0.57 541.63 0.44 540.99 0.44C540.28 0.44 539.64 0.61 539.08 0.95C538.53 1.27 538.06 1.73 537.68 2.3L538.94 3.54C539.24 3.13 539.54 2.82 539.85 2.61C540.16 2.4 540.51 2.29 540.9 2.29Q541.42 2.29 541.75 2.53Q541.82 2.58 541.88 2.64C542.12 2.87 542.25 3.18 542.25 3.56C542.25 3.78 542.21 3.99 542.13 4.21C542.07 4.42 541.96 4.64 541.81 4.87C541.66 5.08 541.47 5.31 541.22 5.55L537.86 8.93ZM552.24 9.93C552.8 10.33 553.47 10.52 554.27 10.52C555.05 10.52 555.72 10.33 556.27 9.93C556.83 9.54 557.26 8.97 557.56 8.23C557.86 7.48 558 6.57 558 5.51C558 4.43 557.86 3.51 557.56 2.75C557.26 2 556.83 1.42 556.27 1.03C555.72 0.64 555.05 0.44 554.27 0.44C553.47 0.44 552.8 0.64 552.24 1.03C551.68 1.42 551.25 2 550.95 2.75C550.65 3.51 550.5 4.43 550.5 5.51C550.5 6.57 550.65 7.48 550.95 8.23C551.25 8.97 551.68 9.54 552.24 9.93ZM563.89 8.93L563.89 10.38L570.7 10.38L570.7 8.62L566.68 8.62L568.61 6.67C569.01 6.27 569.33 5.89 569.58 5.52C569.82 5.15 570 4.79 570.11 4.43C570.22 4.07 570.28 3.71 570.28 3.37Q570.28 2.65 569.99 2.08Q569.93 1.96 569.86 1.84C569.58 1.4 569.19 1.06 568.71 0.82C568.22 0.57 567.66 0.44 567.02 0.44C566.31 0.44 565.67 0.61 565.11 0.95C564.56 1.27 564.09 1.73 563.71 2.3L564.97 3.54C565.27 3.13 565.57 2.82 565.88 2.61C566.19 2.4 566.54 2.29 566.93 2.29Q567.45 2.29 567.78 2.53Q567.85 2.58 567.91 2.64C568.15 2.87 568.28 3.18 568.28 3.56C568.28 3.78 568.24 3.99 568.16 4.21C568.1 4.42 567.99 4.64 567.84 4.87C567.69 5.08 567.5 5.31 567.25 5.55L563.89 8.93ZM0.89 10.21Q1.23 10.38 1.66 10.38L6.34 10.38L6.34 8.52L2.38 8.52Q2.29 8.52 2.22 8.49Q2.14 8.47 2.08 8.41C2.01 8.33 1.97 8.24 1.97 8.13L1.97 0.58L7.62e-6 0.58L7.62e-6 8.72C7.62e-6 9.19 0.15 9.59 0.47 9.91Q0.66 10.1 0.89 10.21ZM25.95 0.58L25.95 2.37L28.67 2.37L28.67 10.38L30.65 10.38L30.65 2.37L33.4 2.37L33.4 0.58L25.95 0.58ZM40.21 9.7C40.92 10.28 41.86 10.58 43.04 10.58Q44.21 10.58 45.07 10.19C45.65 9.93 46.1 9.53 46.43 9C46.75 8.46 46.92 7.77 46.92 6.95L46.92 0.58L44.93 0.58L44.93 6.8Q44.93 7.78 44.44 8.26Q44.42 8.27 44.41 8.28C44.07 8.59 43.61 8.74 43.04 8.74Q42.29 8.74 41.8 8.39Q41.73 8.34 41.67 8.28C41.32 7.97 41.15 7.47 41.15 6.8L41.15 0.58L39.16 0.58L39.16 6.95C39.16 8.18 39.51 9.1 40.21 9.7ZM89.61 10.21Q89.96 10.38 90.38 10.38L95.06 10.38L95.06 8.52L91.1 8.52C90.99 8.52 90.89 8.48 90.8 8.41C90.73 8.33 90.69 8.24 90.69 8.13L90.69 0.58L88.72 0.58L88.72 8.72C88.72 9.19 88.88 9.59 89.19 9.91Q89.38 10.1 89.61 10.21ZM114.86 0.58L117.57 10.38L119.62 10.38L121.75 3.02L123.89 10.38L125.92 10.38L128.64 0.58L126.62 0.58L124.89 7.41L122.86 0.58L120.66 0.58L118.61 7.41L116.88 0.58L114.86 0.58ZM144.96 4.44L147.24 0.58L149.38 0.58L145.95 6.36L145.95 10.38L143.96 10.38L143.96 6.36L140.53 0.58L142.68 0.58L144.96 4.44ZM187.22 0.58L183.71 10.38L185.74 10.38L186.52 8.11L190.38 8.11L191.16 10.38L193.19 10.38L189.67 0.58L187.22 0.58ZM189.81 6.45L188.45 2.49L187.09 6.45L189.81 6.45ZM220.82 10.21Q221.17 10.38 221.6 10.38L226.27 10.38L226.27 8.52L222.31 8.52C222.2 8.52 222.1 8.48 222.02 8.41C221.94 8.33 221.9 8.24 221.9 8.13L221.9 0.58L219.93 0.58L219.93 8.72C219.93 9.19 220.09 9.59 220.41 9.91Q220.6 10.1 220.82 10.21ZM232.86 9.74Q233.91 10.58 235.63 10.58Q236.81 10.58 237.66 10.19Q238.14 9.97 238.5 9.63Q238.8 9.36 239.02 9C239.35 8.46 239.51 7.77 239.51 6.95L239.51 0.58L237.52 0.58L237.52 6.8Q237.52 7.78 237.03 8.26Q237.02 8.27 237 8.28C236.66 8.59 236.2 8.74 235.63 8.74C235.06 8.74 234.61 8.59 234.26 8.28C233.91 7.97 233.74 7.47 233.74 6.8L233.74 0.58L231.75 0.58L231.75 6.95Q231.75 8.57 232.56 9.46Q232.67 9.59 232.8 9.7Q232.83 9.72 232.86 9.74ZM246.12 0.58L246.12 10.38L250.07 10.38C251.13 10.38 251.95 10.14 252.55 9.64C253.15 9.15 253.45 8.48 253.45 7.65C253.45 7.22 253.34 6.83 253.14 6.46C252.94 6.09 252.65 5.79 252.27 5.57C252.12 5.47 251.95 5.4 251.76 5.34C251.88 5.29 251.99 5.23 252.09 5.16C252.42 4.92 252.67 4.61 252.82 4.25C252.97 3.88 253.05 3.49 253.05 3.1Q253.05 2.44 252.77 1.93Q252.56 1.56 252.19 1.27Q251.33 0.58 249.83 0.58L246.12 0.58ZM294.19 0.58L290.68 10.38L292.71 10.38L293.49 8.11L297.35 8.11L298.13 10.38L300.16 10.38L296.64 0.58L294.19 0.58ZM296.78 6.45L295.43 2.49L294.06 6.45L296.78 6.45ZM306.68 10.21Q307.02 10.38 307.45 10.38L312.12 10.38L312.12 8.52L308.16 8.52C308.05 8.52 307.95 8.48 307.87 8.41C307.79 8.33 307.76 8.24 307.76 8.13L307.76 0.58L305.78 0.58L305.78 8.72C305.78 9.19 305.94 9.59 306.26 9.91Q306.45 10.1 306.68 10.21ZM318.73 10.21Q319.08 10.38 319.51 10.38L324.18 10.38L324.18 8.52L320.22 8.52C320.11 8.52 320.01 8.48 319.93 8.41C319.85 8.33 319.81 8.24 319.81 8.13L319.81 0.58L317.84 0.58L317.84 8.72C317.84 9.19 318 9.59 318.32 9.91Q318.51 10.1 318.73 10.21ZM337.24 0.58L337.24 10.38L339.23 10.38L339.23 6.91L340.61 6.91L342.46 10.38L344.71 10.38L342.6 6.61C342.92 6.48 343.2 6.31 343.45 6.1Q343.67 5.92 343.84 5.7Q344.42 4.94 344.42 3.73Q344.42 2.58 343.87 1.84Q343.69 1.59 343.45 1.39C342.82 0.85 341.98 0.58 340.93 0.58L337.24 0.58ZM339.23 5.26L340.84 5.26C341.3 5.26 341.68 5.13 341.96 4.87C342.25 4.6 342.39 4.23 342.39 3.76C342.39 3.31 342.25 2.95 341.96 2.67C341.68 2.39 341.3 2.25 340.84 2.25L339.23 2.25L339.23 5.26ZM350.32 0.58L350.32 2.37L351.92 2.37L351.92 8.59L350.32 8.59L350.32 10.38L355.5 10.38L355.5 8.59L353.91 8.59L353.91 2.37L355.5 2.37L355.5 0.58L350.32 0.58ZM376.62 0.58L376.62 10.38L378.61 10.38L378.61 6.22L382.9 6.22L382.9 10.38L384.88 10.38L384.88 0.58L382.9 0.58L382.9 4.43L378.61 4.43L378.61 0.58L376.62 0.58ZM390.74 0.58L390.74 2.37L393.46 2.37L393.46 10.38L395.44 10.38L395.44 2.37L398.19 2.37L398.19 0.58L390.74 0.58ZM423.98 0.58L423.98 10.38L425.97 10.38L425.97 6.91L427.35 6.91L429.2 10.38L431.45 10.38L429.34 6.61C429.66 6.48 429.94 6.31 430.19 6.1C430.84 5.56 431.16 4.77 431.16 3.73C431.16 2.72 430.84 1.94 430.19 1.39C429.56 0.85 428.72 0.58 427.67 0.58L423.98 0.58ZM425.97 5.26L427.58 5.26Q428.17 5.26 428.56 4.98Q428.63 4.93 428.7 4.87Q428.81 4.76 428.89 4.64Q429.13 4.29 429.13 3.76C429.13 3.31 428.99 2.95 428.7 2.67Q428.6 2.57 428.49 2.5Q428.11 2.25 427.58 2.25L425.97 2.25L425.97 5.26ZM437.88 9.91C438.19 10.22 438.6 10.38 439.08 10.38L443.97 10.38L443.97 8.59L439.75 8.59C439.64 8.59 439.55 8.55 439.47 8.48C439.4 8.39 439.36 8.3 439.36 8.18L439.36 6.31L443.67 6.31L443.67 4.6L439.36 4.6L439.36 2.78C439.36 2.67 439.4 2.58 439.47 2.5C439.55 2.42 439.64 2.37 439.75 2.37L443.97 2.37L443.97 0.58L439.08 0.58C438.6 0.58 438.19 0.74 437.88 1.06C437.56 1.38 437.4 1.77 437.4 2.25L437.4 8.72C437.4 9.19 437.56 9.59 437.88 9.91ZM463.24 9.91C463.55 10.22 463.96 10.38 464.44 10.38L469.33 10.38L469.33 8.59L465.11 8.59C465 8.59 464.91 8.55 464.83 8.48C464.76 8.39 464.72 8.3 464.72 8.18L464.72 6.31L469.03 6.31L469.03 4.6L464.72 4.6L464.72 2.78C464.72 2.67 464.76 2.58 464.83 2.5C464.91 2.42 465 2.37 465.11 2.37L469.33 2.37L469.33 0.58L464.44 0.58C463.96 0.58 463.55 0.74 463.24 1.06C462.92 1.38 462.76 1.77 462.76 2.25L462.76 8.72C462.76 9.19 462.92 9.59 463.24 9.91ZM475.69 0.58L475.69 10.38L477.68 10.38L477.68 6.91L479.06 6.91L480.92 10.38L483.17 10.38L481.06 6.61C481.38 6.48 481.66 6.31 481.91 6.1C482.55 5.56 482.88 4.77 482.88 3.73C482.88 2.72 482.55 1.94 481.91 1.39C481.28 0.85 480.44 0.58 479.39 0.58L475.69 0.58ZM477.68 5.26L479.29 5.26Q479.88 5.26 480.28 4.98Q480.35 4.93 480.41 4.87Q480.52 4.76 480.6 4.64Q480.85 4.29 480.85 3.76C480.85 3.31 480.7 2.95 480.41 2.67Q480.32 2.57 480.2 2.5Q479.83 2.25 479.29 2.25L477.68 2.25L477.68 5.26ZM488.02 0.58L491.54 10.38L493.66 10.38L497.21 0.58L495.1 0.58L492.61 7.84L490.12 0.58L488.02 0.58ZM503.24 9.91C503.55 10.22 503.96 10.38 504.44 10.38L509.33 10.38L509.33 8.59L505.11 8.59C505 8.59 504.91 8.55 504.83 8.48C504.76 8.39 504.72 8.3 504.72 8.18L504.72 6.31L509.03 6.31L509.03 4.6L504.72 4.6L504.72 2.78C504.72 2.67 504.76 2.58 504.83 2.5C504.91 2.42 505 2.37 505.11 2.37L509.33 2.37L509.33 0.58L504.44 0.58C503.96 0.58 503.55 0.74 503.24 1.06C502.92 1.38 502.76 1.77 502.76 2.25L502.76 8.72C502.76 9.19 502.92 9.59 503.24 9.91ZM515.7 0.58L515.7 10.38L519.34 10.38C520.03 10.38 520.67 10.27 521.25 10.03C521.85 9.8 522.37 9.47 522.81 9.04C523.26 8.6 523.61 8.09 523.86 7.5C524.11 6.91 524.24 6.26 524.24 5.54L524.24 5.4C524.24 4.69 524.11 4.04 523.86 3.45C523.61 2.86 523.27 2.36 522.84 1.93C522.4 1.5 521.88 1.17 521.28 0.93C520.68 0.7 520.03 0.58 519.34 0.58L515.7 0.58ZM576.54 6.66L576.54 8.27L580.88 8.27L580.88 10.38L582.76 10.38L582.76 8.27L584.08 8.27L584.08 6.55L582.76 6.55L582.76 4.14L580.88 4.14L580.88 6.55L578.62 6.55L581.37 0.58L579.43 0.58L576.54 6.66ZM274.2 9.35Q273.43 9.65 272.49 9.65C271.87 9.65 271.29 9.55 270.77 9.35C270.26 9.14 269.81 8.85 269.43 8.48C269.05 8.1 268.76 7.65 268.56 7.13C268.35 6.62 268.25 6.06 268.25 5.44C268.25 4.82 268.35 4.25 268.56 3.73C268.76 3.22 269.05 2.78 269.43 2.4C269.81 2.03 270.26 1.74 270.77 1.53C271.29 1.33 271.87 1.23 272.49 1.23Q273.43 1.23 274.2 1.53Q274.88 1.8 275.39 2.25Q275.47 2.33 275.55 2.4Q275.67 2.52 275.78 2.66Q276.17 3.13 276.41 3.73C276.63 4.25 276.74 4.82 276.74 5.44Q276.74 6.36 276.41 7.13Q276.19 7.69 275.84 8.14Q275.7 8.32 275.55 8.48Q275.47 8.56 275.39 8.63Q274.88 9.08 274.2 9.35ZM248.07 8.76L249.75 8.76C250.27 8.76 250.68 8.64 250.97 8.41C251.26 8.18 251.4 7.86 251.4 7.47C251.4 7.23 251.34 7.01 251.22 6.81C251.11 6.61 250.94 6.45 250.73 6.34C250.52 6.22 250.24 6.15 249.92 6.15L248.07 6.15L248.07 8.76ZM248.07 4.6L249.65 4.6C250.09 4.6 250.43 4.49 250.67 4.28C250.93 4.05 251.05 3.75 251.05 3.37C251.05 3.01 250.92 2.73 250.66 2.53C250.41 2.31 250.05 2.21 249.6 2.21L248.07 2.21L248.07 4.6ZM517.68 8.53L519.18 8.53C519.77 8.53 520.29 8.41 520.75 8.16C521.21 7.9 521.56 7.55 521.81 7.11Q521.82 7.1 521.83 7.09Q522.21 6.42 522.21 5.54L522.21 5.4C522.21 4.8 522.08 4.28 521.83 3.84C521.58 3.4 521.22 3.05 520.76 2.81Q520.09 2.43 519.18 2.43L517.68 2.43L517.68 8.53ZM555.23 8.39C554.97 8.63 554.65 8.74 554.27 8.74C553.88 8.74 553.56 8.63 553.29 8.39C553.02 8.15 552.82 7.79 552.68 7.32C552.55 6.83 552.49 6.23 552.49 5.51C552.49 4.77 552.55 4.16 552.68 3.68C552.82 3.18 553.02 2.82 553.29 2.58C553.56 2.34 553.88 2.22 554.27 2.22C554.65 2.22 554.97 2.34 555.23 2.58C555.49 2.82 555.69 3.18 555.82 3.68C555.95 4.16 556.02 4.77 556.02 5.51C556.02 6.23 555.95 6.83 555.82 7.32C555.69 7.79 555.49 8.15 555.23 8.39ZM17.58 8.28C17.16 8.53 16.67 8.65 16.12 8.65C15.57 8.65 15.08 8.53 14.65 8.28C14.22 8.03 13.89 7.67 13.64 7.2C13.4 6.74 13.28 6.18 13.28 5.52L13.28 5.43C13.28 4.78 13.4 4.23 13.64 3.76Q13.9 3.27 14.29 2.95Q14.46 2.81 14.65 2.7C15.08 2.44 15.57 2.32 16.12 2.32C16.67 2.32 17.16 2.44 17.58 2.7C18.01 2.94 18.34 3.29 18.58 3.76C18.83 4.23 18.95 4.78 18.95 5.43L18.95 5.52C18.95 6.18 18.83 6.74 18.58 7.2C18.34 7.67 18.01 8.03 17.58 8.28ZM106.3 8.28C105.88 8.53 105.39 8.65 104.84 8.65C104.29 8.65 103.8 8.53 103.37 8.28C102.94 8.03 102.61 7.67 102.37 7.2C102.12 6.74 102 6.18 102 5.52L102 5.43C102 4.78 102.12 4.23 102.37 3.76Q102.62 3.27 103.01 2.95Q103.18 2.81 103.37 2.7C103.8 2.44 104.29 2.32 104.84 2.32C105.39 2.32 105.88 2.44 106.3 2.7C106.73 2.94 107.07 3.29 107.31 3.76C107.55 4.23 107.67 4.78 107.67 5.43L107.67 5.52C107.67 6.18 107.55 6.74 107.31 7.2C107.07 7.67 106.73 8.03 106.3 8.28ZM160.24 8.28C159.82 8.53 159.34 8.65 158.79 8.65C158.24 8.65 157.75 8.53 157.32 8.28C156.89 8.03 156.55 7.67 156.31 7.2C156.07 6.74 155.95 6.18 155.95 5.52L155.95 5.43Q155.95 4.46 156.31 3.76Q156.56 3.27 156.95 2.95Q157.12 2.81 157.32 2.7C157.75 2.44 158.24 2.32 158.79 2.32C159.34 2.32 159.82 2.44 160.24 2.7Q160.44 2.81 160.61 2.95Q161 3.27 161.25 3.76Q161.62 4.46 161.62 5.43L161.62 5.52C161.62 6.18 161.5 6.74 161.25 7.2Q161.01 7.68 160.63 8.01Q160.45 8.16 160.24 8.28ZM271.36 8.22Q271.95 8.46 272.65 8.46Q273.14 8.46 273.59 8.32Q273.72 8.27 273.85 8.21C274.23 8.04 274.54 7.8 274.78 7.5L273.87 6.59C273.7 6.75 273.51 6.87 273.31 6.95C273.1 7.03 272.9 7.06 272.69 7.06C272.41 7.06 272.16 7 271.93 6.88Q271.79 6.8 271.67 6.69Q271.51 6.55 271.4 6.36C271.27 6.14 271.21 5.88 271.21 5.58L271.21 5.45C271.21 5.15 271.27 4.89 271.4 4.67C271.53 4.46 271.71 4.29 271.93 4.17C272.16 4.05 272.4 3.98 272.66 3.98C272.89 3.98 273.1 4.03 273.29 4.11C273.5 4.19 273.67 4.32 273.81 4.49L274.73 3.55C274.51 3.25 274.21 3.02 273.84 2.85C273.47 2.67 273.08 2.58 272.65 2.58Q272.02 2.58 271.47 2.8Q271.3 2.86 271.14 2.95C270.69 3.19 270.33 3.53 270.06 3.96C269.8 4.39 269.67 4.89 269.67 5.45L269.67 5.58C269.67 6.14 269.8 6.64 270.06 7.08C270.32 7.52 270.67 7.86 271.12 8.1Q271.24 8.16 271.36 8.22Z" fill="#C7A78A" fill-opacity="1.000000" fill-rule="evenodd"/>
</svg>
