<svg width="32.000000" height="32.000000" viewBox="0 0 32 32" fill="none" xmlns="http://www.w3.org/2000/svg" xmlns:xlink="http://www.w3.org/1999/xlink">
	<desc>
			Created with Pixso.
	</desc>
	<defs/>
	<path id="in" d="M0 16C0 7.16 7.16 0 16 0C24.83 0 32 7.16 32 16C32 24.83 24.83 32 16 32C7.16 32 0 24.83 0 16ZM8.19 13.3L8.19 24L11.6 24L11.6 13.3L8.19 13.3ZM8 9.89C8 11 8.8 11.8 9.9 11.8C11 11.8 11.8 11 11.8 9.89C11.8 8.8 11 8 9.9 8C8.9 8 8 8.8 8 9.89ZM20.6 24L23.8 24L23.8 17.39C23.8 14.1 21.8 13 19.9 13C18.2 13 17 14.1 16.7 14.8L16.7 13.3L13.5 13.3L13.5 24L16.9 24L16.9 18.29C16.9 16.79 17.9 16 18.9 16C19.9 16 20.6 16.5 20.6 18.2L20.6 24Z" fill="#C7A78A" fill-opacity="1.000000" fill-rule="evenodd"/>
</svg>
