<svg width="214.000000" height="175.000000" viewBox="0 0 214 175" fill="none" xmlns="http://www.w3.org/2000/svg" xmlns:xlink="http://www.w3.org/1999/xlink">
	<desc>
			Created with Pixso.
	</desc>
	<defs/>
	<rect id="logo-footer" rx="0.000000" width="213.000000" height="174.000000" transform="translate(0.500000 0.500000)" fill="#FFFFFF" fill-opacity="0"/>
	<path id="Vector" d="M170.65 61.58C174.3 51.55 176.91 39.6 177.96 25.36C177.96 25.36 148.79 32.17 127.33 51.78C125.51 36.89 119.33 19.55 105.75 0C105.75 0 87.45 23.53 83.06 52.16C61.57 32.25 32.02 25.36 32.02 25.36C33.07 39.6 35.69 51.55 39.33 61.58C19.42 59.52 2.94 62.86 2.94 62.86C45.14 139.49 104.99 113.49 104.99 113.49C104.96 113.37 104.93 113.25 104.9 113.13C104.95 113.18 105 113.22 105.05 113.26C105.04 113.34 105.01 113.41 104.99 113.49C104.99 113.49 105.19 113.58 105.59 113.73C105.64 113.78 105.7 113.84 105.75 113.88C105.75 113.88 105.78 113.86 105.81 113.83C113.15 116.6 167.75 134.22 207.04 62.87C207.04 62.87 190.56 59.53 170.65 61.59L170.65 61.58ZM168.44 36.78C167.7 46.8 165.93 55.31 163.47 62.55C150.61 64.73 137.02 69.42 125.89 78.79C127.32 72.86 128.13 66.23 127.89 58.92C144.25 42.42 168.44 36.77 168.44 36.77L168.44 36.78ZM113.26 91.79C113.58 81.37 117.07 72.76 122.15 65.69C121.29 77.01 117.18 85.81 113.26 91.79ZM160.96 69C148.88 96.28 126.24 102.14 117.64 103.4C125.25 80.38 143.99 71.8 160.96 69ZM122.15 56.95C112.16 67.88 104.9 82.16 104.99 100.53C104.99 100.53 104.99 100.53 104.98 100.53C105.08 82.27 97.89 68.06 88 57.16C90.47 34.24 105.53 14.87 105.53 14.87C116.7 30.96 121.27 45.07 122.15 56.96L122.15 56.95ZM87.7 65.52C92.8 72.57 96.32 81.15 96.7 91.54C90.59 83.17 88.05 74.23 87.7 65.52ZM41.53 36.77C41.53 36.77 65.92 42.47 82.28 59.13C81.85 65.45 82.21 71.94 83.64 78.42C72.59 69.29 59.18 64.69 46.49 62.55C44.03 55.3 42.27 46.78 41.53 36.77ZM92.33 103.39C83.73 102.14 61.1 96.26 49.01 68.99C65.98 71.79 84.72 80.37 92.33 103.39ZM16.34 69.27C16.34 69.27 27.78 66.95 41.97 68.13C53.29 93.56 71.57 104.86 85.31 109.87C70.78 112.55 39.92 112.08 16.35 69.27L16.34 69.27ZM124.67 109.87C138.4 104.85 156.68 93.55 168.01 68.13C182.2 66.95 193.63 69.27 193.63 69.27C170.05 112.08 139.2 112.55 124.68 109.87L124.67 109.87Z" fill="#C7A78A" fill-opacity="1.000000" fill-rule="nonzero"/>
	<path id="Vector" d="M0 132.9L6.01 132.9L6.01 149.33L16.53 149.33L16.53 154.6L0 154.6L0 132.9Z" fill="#FFFFFF" fill-opacity="1.000000" fill-rule="nonzero"/>
	<path id="Vector" d="M17.11 143.81L17.11 143.74C17.11 137.51 22.13 132.46 28.83 132.46C35.53 132.46 40.5 137.45 40.5 143.68L40.5 143.74C40.5 149.98 35.48 155.03 28.78 155.03C22.08 155.03 17.11 150.03 17.11 143.81ZM34.36 143.81L34.36 143.74C34.36 140.61 32.09 137.89 28.77 137.89C25.45 137.89 23.28 140.55 23.28 143.68L23.28 143.74C23.28 146.87 25.55 149.6 28.83 149.6C32.12 149.6 34.36 146.93 34.36 143.81Z" fill="#FFFFFF" fill-opacity="1.000000" fill-rule="nonzero"/>
	<path id="Vector" d="M48 138.17L41.49 138.17L41.49 132.9L60.53 132.9L60.53 138.17L54.02 138.17L54.02 154.6L48 154.6L48 138.17Z" fill="#FFFFFF" fill-opacity="1.000000" fill-rule="nonzero"/>
	<path id="Vector" d="M62.89 145.08L62.89 132.9L69 132.9L69 144.96C69 148.09 70.59 149.58 73 149.58C75.42 149.58 77.01 148.15 77.01 145.12L77.01 132.9L83.12 132.9L83.12 144.93C83.12 151.93 79.12 155 72.94 155C66.77 155 62.89 151.87 62.89 145.08Z" fill="#FFFFFF" fill-opacity="1.000000" fill-rule="nonzero"/>
	<path id="Vector" d="M85.03 151.37L88.38 147.37C90.52 149.08 92.91 149.98 95.42 149.98C97.04 149.98 97.9 149.42 97.9 148.49L97.9 148.42C97.9 147.52 97.18 147.03 94.23 146.35C89.61 145.3 86.04 143.99 86.04 139.52L86.04 139.46C86.04 135.43 89.24 132.51 94.45 132.51C98.14 132.51 101.02 133.51 103.38 135.4L100.38 139.65C98.39 138.25 96.22 137.51 94.3 137.51C92.84 137.51 92.12 138.13 92.12 138.91L92.12 138.97C92.12 139.96 92.87 140.39 95.87 141.08C100.87 142.16 103.97 143.77 103.97 147.84L103.97 147.9C103.97 152.33 100.46 154.96 95.19 154.96C91.35 154.96 87.68 153.76 85.02 151.37L85.03 151.37Z" fill="#FFFFFF" fill-opacity="1.000000" fill-rule="nonzero"/>
	<path id="Vector" d="M114.74 143.81L114.74 143.74C114.74 137.42 119.71 132.46 126.43 132.46C130.25 132.46 132.94 133.64 135.24 135.62L131.7 139.87C130.15 138.57 128.61 137.82 126.46 137.82C123.33 137.82 120.91 140.46 120.91 143.78L120.91 143.84C120.91 147.34 123.36 149.85 126.8 149.85C128.26 149.85 129.37 149.54 130.28 148.95L130.28 146.32L125.99 146.32L125.99 141.92L135.98 141.92L135.98 151.68C133.69 153.57 130.49 155.03 126.55 155.03C119.79 155.03 114.74 150.38 114.74 143.81L114.74 143.81Z" fill="#FFFFFF" fill-opacity="1.000000" fill-rule="nonzero"/>
	<path id="Vector" d="M139.34 132.9L145.36 132.9L145.36 149.33L155.87 149.33L155.87 154.6L139.34 154.6L139.34 132.9Z" fill="#FFFFFF" fill-opacity="1.000000" fill-rule="nonzero"/>
	<path id="Vector" d="M156.46 143.81L156.46 143.74C156.46 137.51 161.49 132.46 168.19 132.46C174.89 132.46 179.85 137.45 179.85 143.68L179.85 143.74C179.85 149.98 174.82 155.03 168.13 155.03C161.44 155.03 156.46 150.03 156.46 143.81L156.46 143.81ZM173.7 143.81L173.7 143.74C173.7 140.61 171.43 137.89 168.12 137.89C164.8 137.89 162.62 140.55 162.62 143.68L162.62 143.74C162.62 146.87 164.89 149.6 168.18 149.6C171.47 149.6 173.7 146.93 173.7 143.81Z" fill="#FFFFFF" fill-opacity="1.000000" fill-rule="nonzero"/>
	<path id="Vector" d="M180.28 132.9L186.64 132.9L190.42 145.45L194.61 132.84L199.79 132.84L203.98 145.45L207.76 132.9L214 132.9L206.74 154.75L201.5 154.75L197.12 142.26L192.77 154.75L187.53 154.75L180.28 132.9Z" fill="#FFFFFF" fill-opacity="1.000000" fill-rule="nonzero"/>
	<path id="Vector" d="M6.33 167.28L1.87 167.28L1.87 169.9L5.86 169.9L5.86 170.66L1.87 170.66L1.87 173.87L1.04 173.87L1.04 166.51L6.33 166.51L6.33 167.28Z" fill="#FFFFFF" fill-opacity="1.000000" fill-rule="nonzero"/>
	<path id="Vector" d="M12.63 166.51L12.63 173.87L11.8 173.87L11.8 166.51L12.63 166.51Z" fill="#FFFFFF" fill-opacity="1.000000" fill-rule="nonzero"/>
	<path id="Vector" d="M24 166.51L24.81 166.51L24.81 173.87L24.14 173.87L19.39 167.83L19.39 173.87L18.58 173.87L18.58 166.51L19.36 166.51L24 172.41L24 166.51Z" fill="#FFFFFF" fill-opacity="1.000000" fill-rule="nonzero"/>
	<path id="Vector" d="M36.87 171.64C36.68 172.09 36.41 172.48 36.06 172.81C35.72 173.14 35.3 173.4 34.82 173.59C34.34 173.78 33.81 173.87 33.24 173.87L30.68 173.87L30.68 166.51L33.24 166.51C33.81 166.51 34.34 166.6 34.82 166.79C35.3 166.98 35.72 167.24 36.06 167.57C36.41 167.89 36.67 168.29 36.87 168.73C37.06 169.18 37.15 169.67 37.15 170.18C37.15 170.7 37.06 171.19 36.87 171.64L36.87 171.64ZM36.08 169.06C35.93 168.69 35.73 168.39 35.46 168.12C35.2 167.86 34.88 167.65 34.5 167.5C34.12 167.35 33.7 167.28 33.24 167.28L31.51 167.28L31.51 173.1L33.24 173.1C33.7 173.1 34.12 173.03 34.5 172.88C34.88 172.73 35.2 172.53 35.46 172.26C35.72 172 35.93 171.69 36.08 171.35C36.22 170.99 36.29 170.62 36.29 170.2C36.29 169.78 36.22 169.41 36.08 169.06Z" fill="#FFFFFF" fill-opacity="1.000000" fill-rule="nonzero"/>
	<path id="Vector" d="M52.79 173.87L51.96 173.87L51.96 170.95L48.9 166.51L49.91 166.51L52.39 170.19L54.89 166.51L55.85 166.51L52.79 170.95L52.79 173.87L52.79 173.87Z" fill="#FFFFFF" fill-opacity="1.000000" fill-rule="nonzero"/>
	<path id="Vector" d="M67.25 171.64C67.07 172.1 66.81 172.5 66.49 172.85C66.16 173.2 65.76 173.48 65.29 173.69C64.83 173.9 64.32 174 63.75 174C63.19 174 62.68 173.9 62.23 173.7C61.76 173.49 61.37 173.22 61.04 172.87C60.71 172.53 60.46 172.12 60.28 171.67C60.1 171.21 60.01 170.72 60.01 170.21C60.01 169.7 60.11 169.21 60.29 168.75C60.47 168.29 60.73 167.89 61.06 167.53C61.39 167.18 61.79 166.91 62.25 166.7C62.71 166.49 63.22 166.38 63.79 166.38C64.35 166.38 64.86 166.48 65.32 166.69C65.78 166.89 66.17 167.17 66.5 167.51C66.83 167.86 67.08 168.26 67.26 168.72C67.44 169.17 67.53 169.67 67.53 170.18C67.53 170.69 67.43 171.17 67.25 171.64ZM66.45 169.01C66.3 168.64 66.1 168.31 65.84 168.04C65.58 167.77 65.28 167.55 64.92 167.39C64.57 167.23 64.18 167.15 63.76 167.15C63.35 167.15 62.95 167.23 62.6 167.39C62.25 167.54 61.94 167.76 61.69 168.04C61.44 168.31 61.24 168.63 61.1 169C60.95 169.37 60.88 169.76 60.88 170.18C60.88 170.61 60.95 171 61.1 171.38C61.24 171.75 61.44 172.07 61.7 172.34C61.96 172.62 62.26 172.83 62.62 172.99C62.97 173.16 63.36 173.23 63.78 173.23C64.19 173.23 64.59 173.16 64.94 173C65.29 172.84 65.6 172.62 65.85 172.35C66.1 172.07 66.3 171.75 66.45 171.38C66.59 171.02 66.67 170.62 66.67 170.2C66.67 169.78 66.59 169.38 66.45 169.01Z" fill="#FFFFFF" fill-opacity="1.000000" fill-rule="nonzero"/>
	<path id="Vector" d="M79.09 170.73C79.09 171.27 79.02 171.74 78.87 172.14C78.72 172.55 78.52 172.89 78.25 173.16C77.98 173.44 77.65 173.64 77.28 173.78C76.9 173.91 76.49 173.98 76.03 173.98C75.56 173.98 75.15 173.91 74.78 173.78C74.4 173.64 74.08 173.44 73.81 173.16C73.55 172.9 73.33 172.56 73.19 172.16C73.04 171.76 72.97 171.3 72.97 170.78L72.97 166.5L73.8 166.5L73.8 170.73C73.8 171.53 73.99 172.14 74.39 172.57C74.79 173 75.34 173.21 76.05 173.21C76.75 173.21 77.27 173.01 77.67 172.6C78.07 172.19 78.27 171.59 78.27 170.78L78.27 166.5L79.1 166.5L79.1 170.72L79.09 170.73Z" fill="#FFFFFF" fill-opacity="1.000000" fill-rule="nonzero"/>
	<path id="Vector" d="M89.93 173.87L87.79 171.01L85.69 171.01L85.69 173.87L84.86 173.87L84.86 166.51L88.03 166.51C88.44 166.51 88.81 166.56 89.13 166.66C89.46 166.77 89.73 166.91 89.97 167.11C90.2 167.31 90.37 167.53 90.5 167.81C90.63 168.08 90.69 168.38 90.69 168.71C90.69 169.02 90.64 169.3 90.54 169.53C90.44 169.78 90.3 169.99 90.12 170.17C89.94 170.35 89.73 170.5 89.49 170.62C89.24 170.73 88.98 170.82 88.69 170.87L90.95 173.87L89.93 173.87ZM89.35 167.66C89.03 167.4 88.56 167.28 87.96 167.28L85.68 167.28L85.68 170.27L87.94 170.27C88.22 170.27 88.47 170.24 88.7 170.17C88.94 170.1 89.13 170 89.31 169.87C89.47 169.74 89.61 169.58 89.7 169.39C89.79 169.2 89.84 168.98 89.84 168.75C89.84 168.29 89.68 167.93 89.35 167.67L89.35 167.66Z" fill="#FFFFFF" fill-opacity="1.000000" fill-rule="nonzero"/>
	<path id="Vector" d="M104.1 166.51L104.1 173.87L103.27 173.87L103.27 166.51L104.1 166.51Z" fill="#FFFFFF" fill-opacity="1.000000" fill-rule="nonzero"/>
	<path id="Vector" d="M115.47 166.51L116.28 166.51L116.28 173.87L115.62 173.87L110.87 167.83L110.87 173.87L110.06 173.87L110.06 166.51L110.84 166.51L115.48 172.41L115.48 166.51L115.47 166.51Z" fill="#FFFFFF" fill-opacity="1.000000" fill-rule="nonzero"/>
	<path id="Vector" d="M127.57 166.51L128.38 166.51L128.38 173.87L127.72 173.87L122.96 167.83L122.96 173.87L122.16 173.87L122.16 166.51L122.93 166.51L127.58 172.41L127.58 166.51L127.57 166.51Z" fill="#FFFFFF" fill-opacity="1.000000" fill-rule="nonzero"/>
	<path id="Vector" d="M139.58 167.26L135.09 167.26L135.09 169.78L139.1 169.78L139.1 170.54L135.09 170.54L135.09 173.12L139.63 173.12L139.63 173.88L134.25 173.88L134.25 166.51L139.58 166.51L139.58 167.28L139.58 167.26Z" fill="#FFFFFF" fill-opacity="1.000000" fill-rule="nonzero"/>
	<path id="Vector" d="M150.17 173.87L148.03 171.01L145.93 171.01L145.93 173.87L145.1 173.87L145.1 166.51L148.27 166.51C148.67 166.51 149.04 166.56 149.36 166.66C149.69 166.77 149.97 166.91 150.2 167.11C150.44 167.31 150.61 167.53 150.74 167.81C150.86 168.08 150.93 168.38 150.93 168.71C150.93 169.02 150.88 169.3 150.78 169.53C150.67 169.78 150.54 169.99 150.36 170.17C150.18 170.35 149.97 170.5 149.73 170.62C149.48 170.73 149.22 170.82 148.92 170.87L151.18 173.87L150.17 173.87ZM149.59 167.66C149.26 167.4 148.8 167.28 148.2 167.28L145.91 167.28L145.91 170.27L148.18 170.27C148.45 170.27 148.71 170.24 148.94 170.17C149.18 170.1 149.37 170 149.55 169.87C149.71 169.74 149.84 169.58 149.94 169.39C150.03 169.2 150.08 168.98 150.08 168.75C150.08 168.29 149.91 167.93 149.58 167.67L149.59 167.66Z" fill="#FFFFFF" fill-opacity="1.000000" fill-rule="nonzero"/>
	<path id="Vector" d="M163.44 166.51L164.27 166.51L164.27 173.1L168.42 173.1L168.42 173.87L163.45 173.87L163.45 166.51L163.44 166.51Z" fill="#FFFFFF" fill-opacity="1.000000" fill-rule="nonzero"/>
	<path id="Vector" d="M174.65 166.51L174.65 173.87L173.82 173.87L173.82 166.51L174.65 166.51Z" fill="#FFFFFF" fill-opacity="1.000000" fill-rule="nonzero"/>
	<path id="Vector" d="M185.7 173.67C185.2 173.89 184.64 174 184.02 174C183.44 174 182.91 173.89 182.46 173.7C182 173.5 181.6 173.24 181.28 172.89C180.95 172.54 180.71 172.14 180.53 171.68C180.36 171.22 180.28 170.73 180.28 170.2C180.28 169.67 180.36 169.21 180.54 168.75C180.72 168.29 180.97 167.88 181.3 167.53C181.62 167.17 182.01 166.9 182.46 166.69C182.91 166.48 183.41 166.37 183.97 166.37C184.28 166.37 184.56 166.4 184.82 166.44C185.08 166.48 185.31 166.54 185.53 166.62C185.75 166.71 185.96 166.81 186.15 166.94C186.35 167.06 186.54 167.2 186.72 167.35L186.18 167.98C186.04 167.86 185.89 167.74 185.74 167.64C185.59 167.53 185.42 167.45 185.24 167.37C185.06 167.29 184.87 167.24 184.65 167.2C184.44 167.16 184.2 167.13 183.94 167.13C183.53 167.13 183.16 167.21 182.81 167.38C182.46 167.54 182.17 167.75 181.92 168.03C181.68 168.3 181.48 168.62 181.34 168.99C181.2 169.36 181.13 169.75 181.13 170.17C181.13 170.61 181.2 171.02 181.33 171.4C181.47 171.78 181.66 172.1 181.92 172.37C182.17 172.65 182.48 172.86 182.84 173.02C183.2 173.17 183.6 173.24 184.05 173.24C184.47 173.24 184.87 173.17 185.24 173.02C185.61 172.88 185.92 172.7 186.18 172.5L186.18 170.66L183.93 170.66L183.93 169.93L186.98 169.93L186.98 172.85C186.63 173.16 186.21 173.42 185.7 173.64L185.7 173.67Z" fill="#FFFFFF" fill-opacity="1.000000" fill-rule="nonzero"/>
	<path id="Vector" d="M193.46 170.55L193.46 173.87L192.63 173.87L192.63 166.51L193.46 166.51L193.46 169.78L197.72 169.78L197.72 166.51L198.55 166.51L198.55 173.87L197.72 173.87L197.72 170.55L193.46 170.55Z" fill="#FFFFFF" fill-opacity="1.000000" fill-rule="nonzero"/>
	<path id="Vector" d="M207.2 173.87L206.37 173.87L206.37 167.28L203.9 167.28L203.9 166.51L209.68 166.51L209.68 167.28L207.21 167.28L207.21 173.87L207.2 173.87Z" fill="#FFFFFF" fill-opacity="1.000000" fill-rule="nonzero"/>
</svg>
