<svg width="11.250183" height="11.250244" viewBox="0 0 11.2502 11.2502" fill="none" xmlns="http://www.w3.org/2000/svg" xmlns:xlink="http://www.w3.org/1999/xlink">
	<desc>
			Created with Pixso.
	</desc>
	<defs/>
	<path id="tel-2" d="M10.49 9.51C10.5 10.07 9.99 10.54 9.43 10.49C4.54 10.5 0.75 6.67 0.75 1.81C0.7 1.25 1.16 0.75 1.72 0.75L3.2 0.75C3.43 0.74 3.66 0.83 3.84 0.98C4.36 1.42 4.69 2.92 4.56 3.51C4.46 3.97 3.99 4.3 3.68 4.62C4.37 5.84 5.39 6.85 6.62 7.55C6.93 7.23 7.26 6.77 7.72 6.67C8.32 6.54 9.82 6.87 10.26 7.39C10.42 7.57 10.5 7.8 10.49 8.04L10.49 9.51Z" stroke="#191614" stroke-opacity="1.000000" stroke-width="1.500000" stroke-linejoin="round"/>
</svg>
